<svg width="76" height="76" viewBox="0 0 76 76" fill="none" xmlns="http://www.w3.org/2000/svg">
<path fill-rule="evenodd" clip-rule="evenodd" d="M72.9497 12.9497C75.6834 10.2161 75.6834 5.78392 72.9497 3.05025C70.2161 0.316582 65.7839 0.316582 63.0503 3.05025L38 28.1005L12.9497 3.05025C10.2161 0.316583 5.78392 0.316583 3.05025 3.05025C0.316583 5.78392 0.316583 10.2161 3.05025 12.9497L28.1005 38L3.05025 63.0502C0.316579 65.7839 0.316579 70.2161 3.05025 72.9497C5.78392 75.6834 10.2161 75.6834 12.9497 72.9497L38 47.8995L63.0503 72.9497C65.7839 75.6834 70.2161 75.6834 72.9497 72.9497C75.6834 70.2161 75.6834 65.7839 72.9497 63.0503L47.8995 38L72.9497 12.9497Z" fill="#5748F5"/>
<path d="M72.9497 3.05025L72.5962 3.40381V3.40381L72.9497 3.05025ZM72.9497 12.9497L72.5962 12.5962L72.9497 12.9497ZM63.0503 3.05025L63.4038 3.40381L63.0503 3.05025ZM38 28.1005L37.6464 28.4541C37.8417 28.6493 38.1583 28.6493 38.3535 28.4541L38 28.1005ZM12.9497 3.05025L13.3033 2.6967L12.9497 3.05025ZM3.05025 3.05025L2.6967 2.6967L3.05025 3.05025ZM3.05025 12.9497L2.6967 13.3033L3.05025 12.9497ZM28.1005 38L28.4541 38.3535C28.5478 38.2598 28.6005 38.1326 28.6005 38C28.6005 37.8674 28.5478 37.7402 28.4541 37.6464L28.1005 38ZM3.05025 63.0502L3.40381 63.4038L3.05025 63.0502ZM3.05025 72.9497L3.40381 72.5962H3.4038L3.05025 72.9497ZM12.9497 72.9497L12.5962 72.5962L12.9497 72.9497ZM38 47.8995L38.3536 47.5459C38.1583 47.3507 37.8417 47.3507 37.6464 47.5459L38 47.8995ZM63.0503 72.9497L63.4038 72.5962L63.0503 72.9497ZM72.9497 72.9497L72.5962 72.5962L72.9497 72.9497ZM72.9497 63.0503L72.5962 63.4038L72.9497 63.0503ZM47.8995 38L47.5459 37.6464C47.3507 37.8417 47.3507 38.1583 47.5459 38.3536L47.8995 38ZM72.5962 3.40381C75.1346 5.94221 75.1346 10.0578 72.5962 12.5962L73.3033 13.3033C76.2322 10.3744 76.2322 5.62563 73.3033 2.6967L72.5962 3.40381ZM63.4038 3.40381C65.9422 0.865398 70.0578 0.865398 72.5962 3.40381L73.3033 2.6967C70.3744 -0.232233 65.6256 -0.232233 62.6967 2.6967L63.4038 3.40381ZM38.3535 28.4541L63.4038 3.40381L62.6967 2.6967L37.6464 27.747L38.3535 28.4541ZM12.5962 3.40381L37.6464 28.4541L38.3535 27.747L13.3033 2.6967L12.5962 3.40381ZM3.40381 3.40381C5.94221 0.865398 10.0578 0.865398 12.5962 3.40381L13.3033 2.6967C10.3744 -0.232233 5.62563 -0.232233 2.6967 2.6967L3.40381 3.40381ZM3.40381 12.5962C0.865398 10.0578 0.865398 5.94221 3.40381 3.40381L2.6967 2.6967C-0.232233 5.62563 -0.232233 10.3744 2.6967 13.3033L3.40381 12.5962ZM28.4541 37.6464L3.40381 12.5962L2.6967 13.3033L27.747 38.3535L28.4541 37.6464ZM3.40381 63.4038L28.4541 38.3535L27.747 37.6464L2.6967 62.6967L3.40381 63.4038ZM3.4038 72.5962C0.865395 70.0578 0.865394 65.9422 3.40381 63.4038L2.6967 62.6967C-0.232236 65.6256 -0.232237 70.3744 2.6967 73.3033L3.4038 72.5962ZM12.5962 72.5962C10.0578 75.1346 5.94221 75.1346 3.40381 72.5962L2.6967 73.3033C5.62563 76.2322 10.3744 76.2322 13.3033 73.3033L12.5962 72.5962ZM37.6464 47.5459L12.5962 72.5962L13.3033 73.3033L38.3536 48.253L37.6464 47.5459ZM63.4038 72.5962L38.3536 47.5459L37.6464 48.253L62.6967 73.3033L63.4038 72.5962ZM72.5962 72.5962C70.0578 75.1346 65.9422 75.1346 63.4038 72.5962L62.6967 73.3033C65.6256 76.2322 70.3744 76.2322 73.3033 73.3033L72.5962 72.5962ZM72.5962 63.4038C75.1346 65.9422 75.1346 70.0578 72.5962 72.5962L73.3033 73.3033C76.2322 70.3744 76.2322 65.6256 73.3033 62.6967L72.5962 63.4038ZM47.5459 38.3536L72.5962 63.4038L73.3033 62.6967L48.253 37.6464L47.5459 38.3536ZM72.5962 12.5962L47.5459 37.6464L48.253 38.3536L73.3033 13.3033L72.5962 12.5962Z" fill="black"/>
</svg>
