<svg width="73" height="30" viewBox="0 0 73 30" fill="none" xmlns="http://www.w3.org/2000/svg">
<g clip-path="url(#clip0)">
<path d="M55.6103 7.16763H64.2945C64.3974 7.16763 64.4664 7.27872 64.4313 7.37343L60.0898 17.2994C60.0383 17.4198 59.8676 17.4198 59.8162 17.2994L55.4747 7.37343C55.4303 7.27988 55.5074 7.16763 55.6103 7.16763ZM8.69682 7.16763C8.79972 7.16763 8.8687 7.27872 8.82544 7.37343L4.55175 17.8992C4.50031 18.0196 4.33778 18.0196 4.28633 17.8992L0.0126437 7.37343C-0.0306193 7.27872 0.0383677 7.16763 0.141264 7.16763H8.69682ZM10.5384 24.6822L17.5611 7.3746C17.6043 7.27988 17.5353 7.1688 17.4324 7.1688H13.1845C13.1249 7.1688 13.0734 7.20271 13.0477 7.26351L6.01568 24.5699C5.97242 24.6646 6.04141 24.7757 6.1443 24.7757H10.4004C10.4613 24.7757 10.5127 24.7418 10.5384 24.6822ZM25.6361 24.7839H21.8675C21.6442 24.7839 21.4653 24.6038 21.4653 24.3817V7.57103C21.4653 7.34887 21.6453 7.1688 21.8675 7.1688H25.6361C25.8582 7.1688 26.0383 7.34887 26.0383 7.57103V24.3828C26.0383 24.6038 25.8594 24.7839 25.6361 24.7839ZM51.7307 24.7839H47.9539C47.7318 24.7839 47.5599 24.6038 47.5599 24.3817V2.34673C47.5599 2.13275 47.7306 1.95268 47.9539 1.95268H51.7307C51.9447 1.95268 52.1247 2.13275 52.1247 2.34673V24.3817C52.1247 24.6038 51.9447 24.7839 51.7307 24.7839ZM63.0527 29.9053L72.8676 7.37343C72.9109 7.27872 72.8419 7.16763 72.739 7.16763H68.491C68.4314 7.16763 68.3799 7.20154 68.3542 7.26235L58.5312 29.7942C58.4879 29.8889 58.5651 30 58.668 30H62.9159C62.9756 30 63.027 29.9661 63.0527 29.9053ZM32.1278 19.5607C32.1793 19.4918 32.2822 19.4754 32.35 19.5268C33.5403 20.5628 35.3129 21.1802 37.0177 21.1802C38.277 21.1802 39.2534 20.6412 39.2534 19.6812C39.2534 17.0094 30.7832 17.96 30.7832 12.2645C30.7832 8.8736 33.6865 6.74904 37.4796 6.74904C40.0228 6.74904 42.0877 7.57922 43.278 8.45383C43.3376 8.50528 43.3552 8.59064 43.3213 8.65963L41.2739 11.8459C41.2306 11.9137 41.1371 11.9312 41.0681 11.8892C40.1865 11.2636 39.0476 10.7667 37.8479 10.7667C36.5465 10.7667 35.4673 11.1946 35.4673 12.1967C35.4673 14.492 43.9281 13.5846 43.9281 19.7163C43.9281 23.1071 40.9991 25.1884 36.9827 25.1884C34.2676 25.1884 32.101 24.384 30.0711 22.9014C30.0021 22.8581 29.9857 22.7645 30.0372 22.6956L32.1278 19.5607ZM20.9777 2.77468C20.9777 4.3076 22.2194 5.54936 23.7524 5.54936C25.2853 5.54936 26.527 4.3076 26.527 2.77468C26.527 1.24177 25.2853 0 23.7524 0C22.2194 0 20.9777 1.24177 20.9777 2.77468Z" fill="white"/>
</g>
<defs>
<clipPath id="clip0">
<rect width="72.8795" height="30" fill="white"/>
</clipPath>
</defs>
</svg>
