<svg width="40" height="40" viewBox="0 0 40 40" fill="none" xmlns="http://www.w3.org/2000/svg">
<path d="M30 13.3334C32.7614 13.3334 35 11.0948 35 8.33337C35 5.57195 32.7614 3.33337 30 3.33337C27.2386 3.33337 25 5.57195 25 8.33337C25 11.0948 27.2386 13.3334 30 13.3334Z" stroke="#75EDB3" stroke-width="3" stroke-linecap="round" stroke-linejoin="round"/>
<path d="M10 25C12.7614 25 15 22.7614 15 20C15 17.2386 12.7614 15 10 15C7.23858 15 5 17.2386 5 20C5 22.7614 7.23858 25 10 25Z" stroke="#75EDB3" stroke-width="3" stroke-linecap="round" stroke-linejoin="round"/>
<path d="M30 36.6666C32.7614 36.6666 35 34.428 35 31.6666C35 28.9052 32.7614 26.6666 30 26.6666C27.2386 26.6666 25 28.9052 25 31.6666C25 34.428 27.2386 36.6666 30 36.6666Z" stroke="#75EDB3" stroke-width="3" stroke-linecap="round" stroke-linejoin="round"/>
<path d="M14.3167 22.5167L25.7 29.1501" stroke="#75EDB3" stroke-width="3" stroke-linecap="round" stroke-linejoin="round"/>
<path d="M25.6833 10.85L14.3167 17.4833" stroke="#75EDB3" stroke-width="3" stroke-linecap="round" stroke-linejoin="round"/>
</svg>
