<svg width="239" height="244" viewBox="0 0 239 244" fill="none" xmlns="http://www.w3.org/2000/svg">
<path d="M1.72949 30.8413C2.20094 26.2247 3.64787 23.6083 5.97083 22.8035C7.80713 22.2345 9.89617 22.7125 10.8322 23.8732C11.7683 25.0339 11.578 26.51 10.5453 26.593C9.70802 26.6603 8.63495 26.241 8.60129 25.8223C8.58557 25.627 8.22021 24.926 8.10857 24.935C8.10857 24.935 7.89202 25.0367 7.70563 25.164C5.91296 25.9262 5.67445 29.5971 5.53743 30.3385C5.0856 33.8018 5.82744 37.7872 7.17219 39.1398C7.72395 39.7134 8.2475 39.587 9.60679 38.326C11.832 35.956 13.1924 37.5039 13.4035 37.6836C13.7351 40.4098 9.79366 42.047 8.138 42.0678C3.53511 42.466 2.65821 38.5477 2.08245 36.6277C1.79505 35.4991 1.62614 32.0013 1.72949 30.8413ZM13.7232 23.8093C13.7227 22.4048 13.7114 22.2653 14.0653 22.1245C14.5106 21.7235 15.8146 21.8714 16.2246 22.4284C16.3452 22.531 16.504 23.1081 16.5601 23.8059C16.757 24.8575 17.6383 31.2755 17.6944 31.9732C17.824 32.1875 17.9289 32.0948 18.3271 31.1077C19.1638 29.6359 19.3579 29.2552 19.9148 28.8452C22.6039 27.702 23.6194 29.5024 24.0294 30.0593C24.5802 30.9701 25.4379 34.3 25.7672 36.9983C25.8323 37.8077 26.0023 38.5244 26.1319 38.7387C26.2907 39.3158 26.2361 39.6854 25.7796 39.9468C23.4656 40.8632 22.9973 39.5807 22.7448 39.2358C22.6689 36.5452 22.1557 34.7044 21.809 33.1873C21.4915 32.0331 21.1678 32.1996 20.7751 32.9053C20.3981 33.8064 19.5504 35.8409 19.1368 39.7788C19.1749 40.2532 18.9786 40.6061 18.8759 40.7267C18.4486 41.351 17.1278 41.3448 16.2623 40.7122C15.8613 40.2669 15.8613 40.2669 15.6375 38.8804C14.7949 34.3413 13.8001 26.1627 13.7232 23.8093ZM29.9389 28.7413C30.8886 27.6256 31.2524 27.2593 31.8484 26.9866C32.449 26.7698 33.4537 26.689 34.0924 26.9466C35.017 27.2655 35.3432 27.8292 35.0856 28.4679C34.9361 28.7047 34.9104 28.7348 35.27 29.0149C35.901 29.526 35.7964 30.3209 35.8682 31.214C36.1382 33.5238 36.2367 34.0496 37.2997 37.1383C37.5724 37.7344 37.6898 38.1463 37.6195 38.3205C37.5739 38.8017 36.4967 39.0288 35.6693 38.8706C35.0932 38.6922 34.8519 38.4869 34.1905 37.2479C34.177 37.0805 34.0798 36.9197 33.9961 36.9265C33.9961 36.9265 33.8767 37.1889 33.734 37.5094C33.4083 38.3502 32.8225 39.0995 32.2264 39.3722C31.3436 39.9207 29.9558 39.7795 29.3796 39.6011C28.4484 39.1985 27.6108 38.5636 27.5066 37.6169C26.9976 32.6858 29.4256 29.3444 29.9389 28.7413ZM30.4894 36.9837C33.1403 35.3661 32.486 30.0253 32.486 30.0253C32.486 30.0253 32.2483 30.213 32.0497 30.5379C31.5409 31.1968 30.9666 32.788 30.7426 33.8453C30.6903 34.2428 30.5543 34.647 30.4773 34.7375C30.3413 35.1417 30.3287 37.0809 30.4894 36.9837ZM41.6514 27.2657C42.1579 26.5789 42.764 26.0807 43.2295 25.931C45.5024 25.5515 46.8493 26.932 47.691 29.3644C47.947 30.1022 49.0824 35.4885 49.2546 36.2331C49.2995 36.7913 49.3319 36.8449 49.1523 37.056C47.6021 38.3885 46.3757 37.1107 46.1579 36.8473C45.8496 36.507 45.6896 35.5648 45.2107 33.1032C44.6392 30.5368 44.7784 29.8233 44.2446 29.473C42.4161 29.7886 42.5557 35.3673 42.3253 37.0432C42.1427 38.2658 41.9261 38.3674 41.2999 38.6144C39.8018 38.8473 39.4711 38.2278 39.2532 37.9644C39.0354 37.701 38.2768 28.2675 38.443 27.8889C38.6705 27.2246 40.1475 27.0777 40.9616 27.7707C41.166 27.8666 41.1381 27.8688 41.6514 27.2657ZM52.235 28.5776C52.9758 27.3101 54.7939 25.8156 55.8621 25.4769C57.0331 25.0175 58.2813 25.17 59.5398 25.7991C61.3934 26.4928 61.5672 28.3047 61.2537 28.9479C60.9492 29.7027 61.2068 31.5079 61.7828 34.1301C63.7365 42.0069 61.4331 44.1023 57.6719 44.489C56.2296 44.7173 55.2515 44.4308 54.942 43.7254C54.6414 43.1315 54.8656 42.7764 55.6827 42.4579C56.9843 41.8757 58.7807 42.2088 59.2017 39.7591C59.4957 37.8254 58.477 33.8903 58.468 33.7787C58.468 33.7787 56.6021 35.7265 54.2891 36.3058C50.4869 37.2296 50.3145 33.3389 50.3588 32.4926C50.6428 30.7843 52.013 28.9606 52.235 28.5776ZM57.7981 28.2426C58.0111 27.7479 58.0846 27.2645 58.0846 27.2645C58.0756 27.1528 57.4706 27.3139 57.2284 27.4457C54.5284 29.1516 53.7269 32.1094 53.6534 32.5928C53.4606 33.3387 53.519 34.0643 53.7701 34.0441C54.0213 34.0239 55.3482 32.7093 55.9039 31.9343C56.7842 30.6556 57.5138 29.2486 57.7981 28.2426ZM62.5127 29.4084C63.0309 27.1195 64.3543 25.412 66.061 24.6286C69.9835 23.1053 70.8999 25.4193 71.1459 26.3827C71.0318 31.2515 66.8646 32.1765 66.0619 32.3253C65.6991 32.3545 65.727 32.3522 65.8377 32.6804C66.5376 35.0961 69.6343 34.4819 70.0038 34.5365C70.4706 34.7517 71.0111 35.1858 71.0313 35.437C71.1166 36.4976 68.4084 37.0524 66.3036 36.379C62.2885 35.3535 62.3121 30.4077 62.5127 29.4084ZM67.1958 28.6105C67.7582 27.9192 68.0672 27.2201 68.0268 26.7178C68.0768 26.2924 67.9864 26.2154 67.7275 26.489C67.7275 26.489 67.5735 26.67 67.4127 26.7671C67.0701 27.0475 66.3672 28.0872 66.1218 28.5283C65.988 28.9604 65.7037 29.9664 65.7037 29.9664C65.7941 30.0434 66.7896 29.1488 67.1958 28.6105ZM82.6024 14.787C82.571 14.3963 82.7182 14.1316 82.9582 13.9719C83.6168 13.7785 84.6809 14.0862 84.986 14.7358C85.2798 15.2459 85.5059 16.6603 85.6832 18.8652C85.8605 21.0701 85.8628 21.098 86.7726 20.8844C89.2598 20.3754 89.3396 21.7173 89.2315 22.1192C89.1233 22.5212 88.7416 22.6643 87.372 23.4486C86.2312 23.9336 86.2312 23.9336 86.5455 27.841C86.7138 29.9342 86.8709 31.8879 86.8911 32.1391C87.0845 32.7977 87.0823 32.7698 87.6014 32.5876C88.7736 32.4933 89.6089 33.1003 89.6718 33.8818C89.775 35.1656 87.8505 35.6856 85.8586 35.3682C83.6278 34.8735 83.5791 33.22 83.2739 29.4243C82.8291 25.6398 82.857 25.6375 82.1871 25.6914C81.2773 25.905 80.6152 25.7054 80.1706 25.067C79.8992 24.836 79.888 24.6965 80.119 24.4251C80.2271 24.0231 81.0776 23.421 82.2072 22.7965C82.8658 22.6031 82.8401 22.6332 82.7032 20.9307C82.5147 18.5863 82.4141 15.5887 82.6024 14.787ZM90.3392 17.6481C90.3386 16.2436 90.3274 16.104 90.6812 15.9632C91.1265 15.5622 92.4306 15.7102 92.8405 16.2671C92.9612 16.3698 93.1199 16.9469 93.176 17.6446C93.373 18.6962 94.2543 25.1143 94.3104 25.812C94.44 26.0263 94.5449 25.9336 94.943 24.9465C95.7798 23.4747 95.9739 23.0939 96.5308 22.6839C99.2198 21.5407 100.235 23.3411 100.645 23.898C101.196 24.8088 102.054 28.1388 102.383 30.8371C102.448 31.6465 102.618 32.3631 102.748 32.5774C102.907 33.1546 102.852 33.5241 102.396 33.7856C100.082 34.702 99.6132 33.4194 99.3608 33.0745C99.2849 30.384 98.7717 28.5432 98.4249 27.0261C98.1074 25.8718 97.7837 26.0383 97.391 26.7441C97.014 27.6452 96.1664 29.6797 95.7527 33.6175C95.7909 34.092 95.5945 34.4448 95.4918 34.5655C95.0645 35.1897 93.7438 35.1836 92.8783 34.5509C92.4773 34.1056 92.4773 34.1056 92.2534 32.7191C91.4109 28.18 90.4161 20.0015 90.3392 17.6481ZM103.887 26.0812C104.405 23.7923 105.729 22.0847 107.435 21.3014C111.358 19.7781 112.274 22.0921 112.52 23.0555C112.406 27.9243 108.239 28.8493 107.436 28.9981C107.073 29.0273 107.101 29.025 107.212 29.3532C107.912 31.7689 111.009 31.1547 111.378 31.2092C111.845 31.4245 112.385 31.8586 112.406 32.1098C112.491 33.1704 109.783 33.7252 107.678 33.0518C103.663 32.0263 103.686 27.0805 103.887 26.0812ZM108.57 25.2833C109.132 24.592 109.441 23.8929 109.401 23.3906C109.451 22.9652 109.361 22.8882 109.102 23.1618C109.102 23.1618 108.948 23.3427 108.787 23.4399C108.444 23.7203 107.741 24.76 107.496 25.2011C107.362 25.6332 107.078 26.6392 107.078 26.6392C107.168 26.7162 108.164 25.8216 108.57 25.2833ZM122.236 24.0439C121.417 15.2612 121.429 13.6591 121.823 13.3185C122.112 13.0705 122.728 13.049 123.395 13.3044C123.72 13.503 123.838 13.5777 123.974 13.8758C124.471 14.819 124.96 20.5382 125.027 21.3755C125.275 23.0691 125.247 23.0713 125.726 22.3867C128.498 19.8323 130.655 21.1477 131.159 22.1746C132.666 25.1995 130.909 28.1498 130.327 28.955C128.953 31.4252 126.534 32.4343 125.706 32.6133C124.431 32.8282 123.92 32.7569 123.356 32.3809C123.024 32.0986 122.996 32.1008 122.236 24.0439ZM126.693 28.8259C128.392 27.5938 128.555 25.7829 128.651 24.174C128.626 23.867 128.599 23.5321 128.599 23.5321C128.181 23.5658 126.501 25.3863 126.189 28.1362C125.958 29.1098 126.299 29.1666 126.693 28.8259ZM135.964 20.2151C136.913 19.0994 137.277 18.7331 137.873 18.4604C138.474 18.2436 139.479 18.1628 140.117 18.4204C141.042 18.7393 141.368 19.303 141.11 19.9417C140.961 20.1784 140.935 20.2086 141.295 20.4887C141.926 20.9997 141.821 21.7947 141.893 22.6878C142.163 24.9976 142.262 25.5234 143.325 28.6121C143.597 29.2082 143.715 29.6201 143.644 29.7943C143.599 30.2755 142.522 30.5026 141.694 30.3444C141.118 30.166 140.877 29.9607 140.215 28.7217C140.202 28.5542 140.105 28.3935 140.021 28.4002C140.021 28.4002 139.902 28.6626 139.759 28.9831C139.433 29.8239 138.847 30.5733 138.251 30.846C137.368 31.3945 135.981 31.2533 135.405 31.0749C134.473 30.6722 133.636 30.0373 133.531 29.0906C133.023 24.1596 135.451 20.8182 135.964 20.2151ZM136.514 28.4575C139.165 26.8398 138.511 21.4991 138.511 21.4991C138.511 21.4991 138.273 21.6867 138.075 22.0117C137.566 22.6706 136.992 24.2618 136.768 25.3191C136.715 25.7166 136.579 26.1208 136.502 26.2112C136.366 26.6155 136.354 28.5547 136.514 28.4575ZM147.7 18.6814C148.418 17.8371 149.245 17.2931 150.011 17.0349C152.426 16.6721 153.467 17.7401 153.589 18.2079C153.822 18.6666 153.786 19.2595 153.522 19.4773C153.259 19.6951 152.366 19.7669 151.869 19.526C151.583 19.4647 151.351 19.371 151.267 19.3777C151.072 19.3934 150.292 20.5236 149.768 21.3522C149.072 22.4756 148.578 23.6671 148.409 25.0571C148.2 25.9448 148.31 27.3123 148.536 27.6874C149.393 28.2084 150.648 27.4051 151.399 26.9516C151.767 26.641 152.611 26.6574 153.213 26.8057C154.522 27.3745 154.434 28.3648 153.129 29.2563C150.802 30.7075 147.597 30.6843 145.818 29.17C144.168 27.505 144.887 23.8796 145.7 21.7636C146.276 20.5375 146.792 19.6252 147.7 18.6814ZM155.628 20.2911C154.603 12.0868 154.691 11.4337 155.109 11.0349C155.323 10.9053 156.105 10.8425 156.485 11.0366C157.414 11.4113 157.73 12.5377 158.519 17.8114C158.636 19.2627 158.855 20.5934 158.864 20.705C158.994 20.9193 158.968 20.9495 159.162 20.5687C159.507 20.3163 160.286 18.821 160.863 17.6229C161.45 16.5363 161.786 16.1722 162.335 16.0157C163.219 15.8322 164.297 16.3074 164.462 16.9683C163.144 21.8778 161.009 23.6225 161.12 23.6135C161.129 23.7252 164.204 25.2757 164.652 25.2677C167.059 25.1584 166.648 26.6803 166.303 26.9328C165.473 27.7861 163.26 27.5146 160.65 26.1514C160.063 25.8334 159.489 25.683 159.489 25.683C159.489 25.683 159.543 26.3528 159.626 27.3855C159.763 29.088 159.686 29.1784 159.453 29.4219C158.545 30.3657 157.231 29.741 156.839 29.4074C156.363 29.0804 156.338 29.1106 156.129 26.515C156.021 25.1753 155.792 22.3285 155.628 20.2911ZM169.489 19.1483C170.23 17.8809 172.048 16.3863 173.116 16.0476C174.287 15.5883 175.536 15.7407 176.794 16.3698C178.648 17.0635 178.821 18.8754 178.508 19.5186C178.204 20.2734 178.461 22.0786 179.037 24.7009C180.991 32.5776 178.687 34.673 174.926 35.0597C173.484 35.2881 172.506 35.0015 172.196 34.2961C171.896 33.7023 172.12 33.3471 172.937 33.0286C174.239 32.4464 176.035 32.7795 176.456 30.3299C176.75 28.3961 175.731 24.4611 175.722 24.3494C175.722 24.3494 173.856 26.2973 171.543 26.8765C167.741 27.8003 167.569 23.9096 167.613 23.0633C167.897 21.3551 169.267 19.5314 169.489 19.1483ZM175.052 18.8133C175.265 18.3187 175.339 17.8352 175.339 17.8352C175.33 17.7236 174.725 17.8846 174.483 18.0164C171.783 19.7223 170.981 22.6801 170.908 23.1635C170.715 23.9094 170.773 24.6351 171.024 24.6149C171.276 24.5947 172.603 23.2801 173.158 22.505C174.039 21.2264 174.768 19.8193 175.052 18.8133ZM182.658 16.5725C183.08 15.5273 183.966 14.6695 184.692 14.274C185.265 14.0594 186.016 13.9709 186.618 14.1191C188.565 14.5805 188.5 15.5128 188.359 15.8612C188.135 16.2163 187.728 16.3895 187.135 16.3529C185.908 16.1145 185.647 17.0624 185.198 17.7727C184.559 19.2567 184.64 20.9637 184.505 24.514C184.495 25.4418 184.393 26.2646 184.399 26.3483C184.259 26.6967 182.341 28.0026 181.424 26.0258C181.327 25.8651 179.959 18.6434 179.892 17.8061C179.701 16.4732 179.726 16.443 179.88 16.2621C180.195 15.984 181.034 15.9446 181.564 16.2391C181.912 16.3796 182 16.4287 182.195 16.7502C182.403 17.2391 182.377 17.2692 182.658 16.5725ZM189.962 16.294C190.678 14.7196 191.168 14.1746 191.902 13.8628C195.651 13.6737 196.751 15.1301 197.594 17.2253C197.917 18.0983 198.051 19.7728 197.888 20.8815C197.149 25.323 193.616 26.4498 192.005 26.3266C188.879 26.578 188.628 23.4521 188.633 22.4685C188.537 20.2289 189.02 18.1957 189.962 16.294ZM194.596 20.4721C194.903 19.0429 194.52 17.0792 193.783 16.2958C193.692 16.2188 193.525 16.2323 193.525 16.2323C193.106 16.2659 192.011 18.7136 191.738 20.5614C191.515 21.9839 191.898 23.9475 192.226 23.8368C194.279 23.1661 194.349 21.5875 194.596 20.4721ZM199.446 15.9527C199.547 14.7648 199.816 13.5634 200.098 13.2317C200.381 12.9 201.643 12.8827 202.186 13.3447C202.518 13.627 202.549 14.0178 202.527 16.1826C202.497 18.2636 202.886 23.092 203.072 22.9647C205.205 21.8942 205.553 15.7425 205.623 14.1639C205.678 13.4571 205.83 13.2483 206.317 13.0125C207.194 12.7453 208.286 13.0508 208.733 13.7171C208.953 14.0084 208.953 14.0084 208.868 15.3917C208.097 20.4819 209.436 22.4529 210.069 22.9919C210.82 23.6056 210.297 24.4342 209.599 24.4903C208.632 24.6805 207.617 24.2846 207.058 23.6273C206.847 23.4476 206.754 23.3427 206.643 23.3517C206.643 23.3517 206.568 23.4701 206.472 23.6744C205.877 25.0144 205.45 25.6386 204.7 26.0922C202.808 26.6657 201.656 26.309 200.911 25.779C200.269 25.1283 200.035 24.6696 199.73 23.3177C199.4 21.6588 199.281 17.7357 199.446 15.9527ZM214.453 13.3695C214.959 12.6827 215.565 12.1845 216.031 12.0347C218.304 11.6553 219.651 13.0358 220.493 15.4681C220.749 16.206 221.884 21.5923 222.056 22.3369C222.101 22.8951 222.133 22.9487 221.954 23.1598C220.404 24.4923 219.177 23.2145 218.959 22.9511C218.651 22.6107 218.491 21.6685 218.012 19.207C217.441 16.6405 217.58 15.9271 217.046 15.5767C215.218 15.8923 215.357 21.4711 215.127 23.147C214.944 24.3695 214.728 24.4712 214.101 24.7182C212.603 24.951 212.273 24.3316 212.055 24.0682C211.837 23.8048 211.078 14.3712 211.245 13.9927C211.472 13.3283 212.949 13.1815 213.763 13.8744C213.967 13.9704 213.94 13.9726 214.453 13.3695ZM228.019 5.31214C228.001 5.08886 228.215 4.95926 228.43 4.82967C228.933 4.4521 230.051 4.7274 230.549 5.33342C231.089 5.76748 231.437 11.1329 231.585 12.975C231.881 16.6591 232.08 17.7386 233.094 20.9155C233.439 22.4047 233.448 22.5164 233.037 22.9988C232.841 23.3517 231.585 23.4527 231.111 23.1537C230.879 23.06 230.879 23.06 230.665 23.1896C230.254 23.6721 228.491 24.4599 227.506 24.4268C224.507 24.8646 223.93 23.2817 223.553 22.7784C222.926 19.8792 224.128 17.7039 224.598 16.9077C225.357 15.5264 226.855 13.8891 227.789 13.2802C228.218 13.021 228.22 13.0489 228.123 11.8488C227.975 10.0068 227.925 5.54439 228.019 5.31214ZM229.434 20.1143C229.262 19.3697 228.891 17.5457 228.848 17.0154C228.821 16.6804 228.713 16.3802 228.713 16.3802C228.601 16.3891 228.393 16.6025 228.085 16.9643C226.904 18.6886 226.104 22.0114 226.652 22.1921C226.996 22.2768 227.946 21.8633 228.759 21.1518C229.461 20.4493 229.573 20.4403 229.434 20.1143ZM30.2561 63.6683C30.3572 62.4804 30.6257 61.279 30.9081 60.9473C31.1904 60.6156 32.4531 60.5983 32.9958 61.0603C33.3275 61.3426 33.3589 61.7334 33.3364 63.8981C33.3071 65.9792 33.6954 70.8076 33.8818 70.6802C36.0149 69.6098 36.3629 63.4581 36.4325 61.8795C36.4881 61.1727 36.6398 60.9639 37.1265 60.7281C38.0039 60.4609 39.0959 60.7664 39.5427 61.4327C39.7628 61.724 39.7628 61.724 39.6774 63.1073C38.907 68.1974 40.2453 70.1685 40.8785 70.7075C41.6301 71.3212 41.1068 72.1498 40.4091 72.2059C39.4412 72.3961 38.4262 72.0002 37.8677 71.3429C37.6567 71.1632 37.564 71.0583 37.4523 71.0673C37.4523 71.0673 37.3776 71.1857 37.2816 71.39C36.6871 72.73 36.2598 73.3542 35.5097 73.8078C33.6176 74.3813 32.4653 74.0246 31.7204 73.4946C31.0782 72.8439 30.8447 72.3852 30.5393 71.0333C30.2093 69.3744 30.0905 65.4513 30.2561 63.6683ZM42.284 66.6618C42.9013 63.8593 45.6354 60.8304 48.4706 59.7597C49.127 59.5384 50.1574 59.4274 50.6544 59.6683C52.6163 60.6623 51.6645 61.7501 50.5625 61.6702C49.8558 61.6146 49.5924 61.8324 48.5578 62.5898C47.4741 63.4354 46.7086 64.3958 45.8998 65.8654C45.5283 66.4852 45.553 66.7922 45.4214 67.2522C47.7219 66.1683 49.17 66.3609 49.6792 66.4042C51.9456 66.6433 52.6978 68.6615 51.1768 70.3569C49.3546 72.4978 46.8151 73.4043 45.3388 72.5118C44.8999 72.2942 44.5525 71.8166 44.6026 71.3912C44.6424 70.4891 45.2744 70.663 45.7835 70.7063C46.46 70.7362 46.9166 70.4747 47.7134 69.905C48.1889 69.5297 48.8886 68.7993 48.7144 68.729C48.7144 68.729 46.1781 69.3262 45.2661 69.5119C43.0557 69.9706 42.2647 68.5173 42.1973 67.68C42.1704 67.3451 42.2205 66.9197 42.284 66.6618ZM53.8231 59.554C53.7971 58.8819 53.9187 58.6474 53.9957 58.5569C54.3361 58.2487 55.2873 58.2003 55.782 58.4133C57.4145 59.1528 56.6885 60.9528 56.1627 61.0513C53.7839 61.8605 53.8356 60.0586 53.8231 59.554ZM54.1132 64.5588C54.0122 63.3029 54.1694 62.8127 54.4909 62.6183C54.8123 62.4239 55.8562 62.4804 56.2928 62.67C56.9126 63.0416 57.0422 63.2559 57.4241 66.2589C57.5271 66.8405 57.7555 68.2829 57.9803 69.3322C58.2051 70.3816 58.4743 70.5846 58.353 71.5214C58.2384 72.5418 56.3672 72.3272 56.0233 72.2424C55.4102 71.9547 55.0651 71.5049 54.8505 70.9322C54.4893 69.5849 54.1407 66.2982 54.1132 64.5588ZM61.9158 59.7459C62.4224 59.0591 63.0284 58.5609 63.4939 58.4111C65.7668 58.0317 67.1138 59.4122 67.9555 61.8445C68.2115 62.5824 69.3469 67.9687 69.5191 68.7133C69.564 69.2715 69.5964 69.3251 69.4167 69.5361C67.8666 70.8687 66.6402 69.5909 66.4224 69.3275C66.1141 68.9871 65.9541 68.0449 65.4752 65.5834C64.9037 63.0169 65.0429 62.3035 64.5091 61.9531C62.6805 62.2687 62.8202 67.8475 62.5898 69.5233C62.4072 70.7459 62.1906 70.8476 61.5644 71.0946C60.0662 71.3274 59.7355 70.7079 59.5177 70.4446C59.2999 70.1812 58.5413 60.7476 58.7075 60.3691C58.9349 59.7047 60.4119 59.5578 61.2261 60.2508C61.4304 60.3467 61.4025 60.349 61.9158 59.7459ZM72.4995 61.0577C73.2403 59.7903 75.0583 58.2957 76.1266 57.957C77.2976 57.4977 78.5458 57.6501 79.8043 58.2793C81.6578 58.9729 81.8316 60.7848 81.5182 61.428C81.2137 62.1828 81.4712 63.988 82.0473 66.6103C84.001 74.487 81.6975 76.5824 77.9364 76.9691C76.4941 77.1975 75.516 76.911 75.2064 76.2055C74.9059 75.6117 75.1301 75.2566 75.9472 74.938C77.2487 74.3558 79.0452 74.6889 79.4662 72.2393C79.7601 70.3055 78.7414 66.3705 78.7325 66.2589C78.7325 66.2589 76.8666 68.2067 74.5536 68.786C70.7514 69.7097 70.579 65.819 70.6233 64.9727C70.9073 63.2645 72.2775 61.4408 72.4995 61.0577ZM78.0625 60.7227C78.2756 60.2281 78.3491 59.7446 78.3491 59.7446C78.3401 59.633 77.735 59.794 77.4928 59.9258C74.7929 61.6318 73.9914 64.5895 73.9179 65.073C73.7251 65.8188 73.7834 66.5445 74.0346 66.5243C74.2858 66.5041 75.6127 65.1895 76.1684 64.4145C77.0487 63.1358 77.7783 61.7288 78.0625 60.7227ZM93.2728 48.0387C93.2414 47.648 93.3887 47.3833 93.6286 47.2235C94.2873 47.0301 95.3514 47.3378 95.6564 47.9875C95.9502 48.4975 96.1763 49.912 96.3537 52.1169C96.531 54.3217 96.5332 54.3497 97.443 54.136C99.9302 53.627 100.01 54.9689 99.9019 55.3709C99.7938 55.7729 99.412 55.9159 98.0425 56.7002C96.9017 57.1852 96.9017 57.1852 97.2159 61.0926C97.3842 63.1859 97.5414 65.1396 97.5616 65.3907C97.755 66.0494 97.7527 66.0215 98.2718 65.8393C99.444 65.745 100.279 66.352 100.342 67.1335C100.445 68.4173 98.5209 68.9373 96.5291 68.6199C94.2982 68.1251 94.2495 66.4717 93.9443 62.676C93.4995 58.8914 93.5274 58.8892 92.8576 58.9431C91.9478 59.1567 91.2857 58.9571 90.841 58.3187C90.5697 58.0877 90.5584 57.9482 90.7894 57.6768C90.8976 57.2748 91.748 56.6727 92.8776 56.0481C93.5362 55.8547 93.5105 55.8849 93.3736 54.1824C93.1851 51.8379 93.0845 48.8404 93.2728 48.0387ZM101.01 50.8997C101.009 49.4953 100.998 49.3557 101.352 49.2149C101.797 48.8139 103.101 48.9618 103.511 49.5188C103.632 49.6214 103.79 50.1986 103.846 50.8963C104.043 51.9479 104.925 58.3659 104.981 59.0637C105.11 59.278 105.215 59.1853 105.613 58.1982C106.45 56.7264 106.644 56.3456 107.201 55.9356C109.89 54.7924 110.906 56.5928 111.316 57.1497C111.867 58.0605 112.724 61.3905 113.054 64.0887C113.119 64.8981 113.289 65.6148 113.418 65.8291C113.577 66.4062 113.523 66.7758 113.066 67.0372C110.752 67.9537 110.284 66.6711 110.031 66.3262C109.955 63.6356 109.442 61.7949 109.095 60.2778C108.778 59.1235 108.454 59.29 108.061 59.9957C107.684 60.8969 106.837 62.9313 106.423 66.8692C106.461 67.3436 106.265 67.6965 106.162 67.8171C105.735 68.4414 104.414 68.4352 103.549 67.8026C103.148 67.3573 103.148 67.3573 102.924 65.9708C102.081 61.4317 101.087 53.2531 101.01 50.8997ZM114.557 59.3329C115.076 57.044 116.399 55.3364 118.106 54.5531C122.028 53.0298 122.945 55.3438 123.191 56.3071C123.077 61.1759 118.909 62.101 118.107 62.2498C117.744 62.279 117.772 62.2767 117.882 62.6049C118.582 65.0206 121.679 64.4064 122.049 64.4609C122.515 64.6762 123.056 65.1103 123.076 65.3615C123.161 66.422 120.453 66.9769 118.348 66.3034C114.333 65.278 114.357 60.3322 114.557 59.3329ZM119.24 58.5349C119.803 57.8436 120.112 57.1446 120.071 56.6422C120.122 56.2169 120.031 56.1399 119.772 56.4135C119.772 56.4135 119.618 56.5944 119.457 56.6916C119.115 56.972 118.412 58.0117 118.166 58.4528C118.033 58.8849 117.748 59.8909 117.748 59.8909C117.839 59.9679 118.834 59.0732 119.24 58.5349ZM136.102 53.7238C136.821 52.8795 137.648 52.3355 138.414 52.0773C140.828 51.7145 141.869 52.7825 141.991 53.2503C142.225 53.709 142.188 54.3019 141.925 54.5197C141.661 54.7375 140.768 54.8093 140.271 54.5684C139.985 54.5071 139.753 54.4134 139.669 54.4201C139.474 54.4358 138.694 55.566 138.171 56.3946C137.475 57.518 136.981 58.7095 136.812 60.0995C136.602 60.9872 136.712 62.3547 136.939 62.7298C137.795 63.2508 139.051 62.4475 139.801 61.994C140.169 61.6834 141.013 61.6998 141.615 61.8481C142.925 62.4169 142.836 63.4072 141.531 64.2987C139.204 65.7499 136 65.7267 134.221 64.2124C132.57 62.5474 133.29 58.922 134.103 56.806C134.678 55.5799 135.195 54.6676 136.102 53.7238ZM144.731 54.0412C145.447 52.4667 145.937 51.9217 146.671 51.6099C150.42 51.4208 151.52 52.8773 152.362 54.9725C152.685 55.8454 152.82 57.52 152.656 58.6287C151.918 63.0701 148.385 64.197 146.774 64.0737C143.648 64.3251 143.397 61.1992 143.402 60.2156C143.306 57.9761 143.789 55.9428 144.731 54.0412ZM149.365 58.2192C149.672 56.79 149.289 54.8264 148.552 54.0429C148.461 53.9659 148.294 53.9794 148.294 53.9794C147.875 54.0131 146.78 56.4608 146.507 58.3086C146.284 59.731 146.667 61.6946 146.995 61.584C149.048 60.9133 149.118 59.3346 149.365 58.2192ZM157.147 52.0876C157.654 51.4008 158.26 50.9026 158.726 50.7528C160.998 50.3734 162.345 51.7539 163.187 54.1862C163.443 54.9241 164.579 60.3104 164.751 61.055C164.796 61.6132 164.828 61.6668 164.648 61.8779C163.098 63.2104 161.872 61.9326 161.654 61.6692C161.346 61.3288 161.186 60.3866 160.707 57.9251C160.135 55.3586 160.275 54.6452 159.741 54.2949C157.912 54.6104 158.052 60.1892 157.821 61.8651C157.639 63.0876 157.422 63.1893 156.796 63.4363C155.298 63.6692 154.967 63.0497 154.749 62.7863C154.532 62.5229 153.773 53.0893 153.939 52.7108C154.167 52.0464 155.644 51.8996 156.458 52.5925C156.662 52.6885 156.634 52.6907 157.147 52.0876ZM167.327 42.0835C167.295 41.6927 167.443 41.4281 167.683 41.2683C168.341 41.0749 169.405 41.3826 169.71 42.0322C170.004 42.5423 170.23 43.9568 170.408 46.1616C170.585 48.3665 170.587 48.3944 171.497 48.1808C173.984 47.6718 174.064 49.0137 173.956 49.4157C173.848 49.8177 173.466 49.9607 172.096 50.745C170.956 51.23 170.956 51.23 171.27 55.1374C171.438 57.2307 171.595 59.1843 171.615 59.4355C171.809 60.0941 171.807 60.0662 172.326 59.884C173.498 59.7898 174.333 60.3968 174.396 61.1783C174.499 62.4621 172.575 62.982 170.583 62.6647C168.352 62.1699 168.303 60.5165 167.998 56.7208C167.553 52.9362 167.581 52.934 166.911 52.9878C166.002 53.2015 165.34 53.0019 164.895 52.3635C164.624 52.1325 164.612 51.9929 164.843 51.7216C164.951 51.3196 165.802 50.7175 166.931 50.0929C167.59 49.8995 167.564 49.9297 167.428 48.2272C167.239 45.8827 167.138 42.8852 167.327 42.0835ZM177.738 51.0779C178.16 50.0327 179.046 49.1749 179.772 48.7794C180.345 48.5648 181.096 48.4763 181.698 48.6245C183.646 49.0859 183.58 50.0182 183.439 50.3666C183.215 50.7217 182.808 50.8949 182.215 50.8583C180.988 50.6199 180.727 51.5678 180.279 52.2781C179.639 53.7621 179.721 55.4691 179.585 59.0194C179.575 59.9472 179.473 60.77 179.479 60.8537C179.339 61.2021 177.421 62.508 176.504 60.5312C176.407 60.3705 175.039 53.1488 174.972 52.3115C174.781 50.9786 174.806 50.9484 174.96 50.7675C175.275 50.4894 176.115 50.45 176.644 50.7445C176.992 50.885 177.081 50.9341 177.275 51.2556C177.483 51.7445 177.457 51.7746 177.738 51.0779ZM185.043 50.7994C185.759 49.225 186.249 48.68 186.982 48.3682C190.731 48.1791 191.831 49.6355 192.674 51.7307C192.997 52.6037 193.131 54.2783 192.968 55.3869C192.229 59.8284 188.696 60.9552 187.085 60.832C183.959 61.0834 183.708 57.9575 183.713 56.9739C183.617 54.7344 184.1 52.7011 185.043 50.7994ZM189.676 54.9775C189.983 53.5483 189.6 51.5846 188.863 50.8012C188.773 50.7242 188.605 50.7377 188.605 50.7377C188.186 50.7714 187.091 53.219 186.818 55.0668C186.596 56.4893 186.978 58.4529 187.306 58.3423C189.359 57.6715 189.429 56.0929 189.676 54.9775ZM193.927 47.8939C193.456 43.4373 193.449 41.9491 193.803 41.8083C194.388 41.3961 195.664 41.5463 196.076 42.1311C196.356 42.4738 196.397 42.9761 196.947 46.668C197.175 49.5148 198.088 54.919 198.859 58.2278C199.101 59.8376 199.178 60.4494 198.685 60.6014C197.961 61.0249 196.824 60.8634 196.272 60.2898C196.001 60.0588 195.871 59.8445 195.699 59.1C194.836 56.0513 194.336 52.9735 193.927 47.8939ZM200.04 53.9755C200.658 51.173 203.392 48.1441 206.227 47.0733C206.883 46.852 207.914 46.7411 208.411 46.982C210.373 47.9759 209.421 49.0637 208.319 48.9838C207.612 48.9283 207.349 49.1461 206.314 49.9035C205.23 50.7491 204.465 51.7095 203.656 53.1791C203.285 53.7988 203.309 54.1059 203.178 54.5659C205.478 53.482 206.926 53.6745 207.435 53.7179C209.702 53.9569 210.454 55.9751 208.933 57.6705C207.111 59.8115 204.571 60.718 203.095 59.8254C202.656 59.6079 202.309 59.1302 202.359 58.7048C202.399 57.8027 203.031 57.9766 203.54 58.02C204.216 58.0498 204.673 57.7884 205.47 57.2187C205.945 56.8434 206.645 56.1129 206.471 56.0427C206.471 56.0427 203.934 56.6399 203.022 56.8256C200.812 57.2843 200.021 55.831 199.954 54.9937C199.927 54.6588 199.977 54.2334 200.04 53.9755Z" fill="white"/>
<path d="M99.5379 101.378C91.0341 130.513 91.9691 150.897 101.227 172.164C111.951 196.796 134.333 225.216 162.846 226.73" stroke="white" stroke-width="5" stroke-linecap="round" stroke-linejoin="round"/>
<path d="M163.549 228.295C161.848 224.387 159.27 221.074 157.106 217.422C156.43 216.281 155.725 215.104 155.195 213.885C155.083 213.628 154.953 213.004 154.656 212.989" stroke="white" stroke-width="5" stroke-linecap="round" stroke-linejoin="round"/>
<path d="M163.266 229.012C160.914 229.652 158.599 229.685 156.21 230.068C154.519 230.34 152.915 230.819 151.316 231.423C148.717 232.404 146.104 233.51 143.557 234.619" stroke="white" stroke-width="5" stroke-linecap="round" stroke-linejoin="round"/>
</svg>
