<svg width="234" height="271" viewBox="0 0 234 271" fill="none" xmlns="http://www.w3.org/2000/svg">
<path d="M42.8491 191.141C44.0494 189.263 44.1552 189.048 44.6344 188.758C45.3364 188.491 46.4119 188.711 46.8021 189.312C47.1923 189.914 47.0113 190.318 45.6941 192.522C43.7335 195.534 42.4774 197.126 42.0986 197.538C41.7978 198.015 41.7003 198.146 41.5808 199.344C41.3277 200.753 41.231 203.98 41.3011 205.534C41.3854 208.075 40.4938 207.986 39.8251 207.92C38.7385 207.811 38.2257 207.31 37.9997 206.19C37.8658 205.276 37.8818 202.858 38.2684 200.111C38.5435 197.352 38.6272 197.924 36.4975 193.603C36.4194 193.257 35.9594 192.227 35.5105 191.084C34.5653 188.43 34.6431 187.649 35.7186 187.869C36.3873 187.936 37.0449 188.114 37.3347 188.593C37.5354 188.838 40.1642 194.644 40.1531 194.755C40.1198 195.09 42.3255 191.877 42.8491 191.141ZM46.8317 197.335C47.8176 195.914 48.397 195.465 49.1742 195.289C52.8966 195.773 53.7189 197.403 54.1737 199.615C54.3355 200.531 54.1688 202.203 53.8097 203.265C52.2896 207.503 48.6121 207.98 47.0489 207.571C43.9284 207.26 44.2396 204.139 44.4205 203.172C44.7263 200.952 45.5645 199.037 46.8317 197.335ZM50.6444 202.274C51.2012 200.922 51.1756 198.922 50.5903 198.019C50.5151 197.927 50.3479 197.911 50.3479 197.911C49.93 197.869 48.4149 200.081 47.8164 201.851C47.3431 203.211 47.3687 205.211 47.7114 205.161C49.851 204.868 50.2017 203.327 50.6444 202.274ZM56.224 198.694C56.5358 197.543 57.0147 196.409 57.3517 196.133C57.6888 195.857 58.9342 196.066 59.3857 196.617C59.6616 196.954 59.6227 197.344 59.2137 199.47C58.8131 201.512 58.3324 206.333 58.5385 206.241C60.8285 205.568 62.2701 199.578 62.6208 198.037C62.8017 197.352 62.9883 197.173 63.5093 197.028C64.4203 196.922 65.4401 197.418 65.7607 198.153C65.9252 198.479 65.9252 198.479 65.594 199.825C63.9264 204.696 64.891 206.874 65.4178 207.518C66.0476 208.256 65.3847 208.977 64.6882 208.908C63.7019 208.922 62.774 208.351 62.3419 207.605C62.1663 207.39 62.0939 207.27 61.9824 207.259C61.9824 207.259 61.8877 207.362 61.7568 207.546C60.9325 208.759 60.4005 209.296 59.5814 209.609C57.6173 209.835 56.5473 209.278 55.9091 208.623C55.3934 207.868 55.2456 207.375 55.1868 205.991C55.1585 204.3 55.7425 200.418 56.224 198.694ZM70.8852 199.424C71.4867 198.471 72.5118 197.785 73.2975 197.526C73.8992 197.417 74.6543 197.465 75.2199 197.718C77.0534 198.52 76.8224 199.425 76.6219 199.743C76.3378 200.052 75.9059 200.15 75.3292 200.008C74.1645 199.554 73.7384 200.44 73.1702 201.059C72.2763 202.405 72.051 204.099 71.283 207.568C71.1077 208.479 70.86 209.27 70.8516 209.354C70.6511 209.672 68.5311 210.614 67.9817 208.505C67.9148 208.329 67.8599 200.98 67.9433 200.144C67.9931 198.798 68.0237 198.773 68.2075 198.622C68.5669 198.405 69.4 198.516 69.8681 198.901C70.1858 199.101 70.2638 199.165 70.3977 199.516C70.5148 200.034 70.4842 200.059 70.8852 199.424ZM89.7411 200.601C90.5991 199.899 91.51 199.511 92.3096 199.394C94.7502 199.469 95.5836 200.706 95.62 201.188C95.7678 201.681 95.6258 202.257 95.3277 202.425C95.0297 202.592 94.1381 202.503 93.6922 202.177C93.422 202.066 93.2102 201.932 93.1266 201.924C92.9316 201.904 91.9623 202.877 91.2994 203.599C90.4136 204.58 89.7146 205.664 89.2998 207.001C88.9351 207.837 88.7989 209.202 88.9551 209.612C89.7047 210.277 91.0837 209.711 91.9027 209.399C92.3206 209.159 93.1481 209.326 93.7137 209.58C94.9008 210.373 94.6364 211.332 93.1934 211.976C90.6443 212.988 87.4959 212.393 86.016 210.585C84.6893 208.652 86.0452 205.213 87.2232 203.277C88.0086 202.173 88.6798 201.368 89.7411 200.601ZM97.7011 195.739C97.9515 194.357 97.9653 194.218 98.3387 194.143C98.8484 193.828 100.105 194.206 100.409 194.827C100.509 194.95 100.562 195.546 100.493 196.243C100.499 197.313 100.219 203.785 100.15 204.481C100.239 204.715 100.359 204.643 100.927 203.743C102.013 202.444 102.272 202.104 102.893 201.8C105.743 201.156 106.421 203.109 106.725 203.73C107.104 204.725 107.353 208.154 107.195 210.868C107.114 211.676 107.153 212.411 107.242 212.645C107.296 213.242 107.176 213.596 106.68 213.771C104.239 214.259 104.008 212.914 103.821 212.529C104.227 209.869 104.051 207.966 103.981 206.411C103.875 205.219 103.527 205.325 103.014 205.949C102.482 206.768 101.285 208.618 100.174 212.419C100.127 212.893 99.8705 213.205 99.748 213.305C99.216 213.843 97.9176 213.601 97.1791 212.824C96.8641 212.314 96.8641 212.314 96.8916 210.91C96.8736 206.293 97.3562 198.068 97.7011 195.739ZM112.775 203.489C113.908 202.561 114.332 202.266 114.967 202.104C115.596 201.998 116.599 202.098 117.182 202.466C118.035 202.945 118.255 203.557 117.887 204.14C117.698 204.346 117.667 204.371 117.971 204.711C118.5 205.327 118.255 206.09 118.167 206.982C118.02 209.302 118.022 209.837 118.516 213.066C118.678 213.702 118.72 214.128 118.62 214.287C118.489 214.752 117.389 214.783 116.603 214.479C116.068 214.201 115.867 213.956 115.438 212.619C115.454 212.451 115.387 212.276 115.304 212.268C115.304 212.268 115.14 212.504 114.942 212.794C114.471 213.563 113.761 214.196 113.126 214.358C112.159 214.74 110.819 214.353 110.284 214.074C109.439 213.512 108.729 212.737 108.795 211.787C109.176 206.845 112.162 203.991 112.775 203.489ZM111.843 211.697C114.741 210.579 115.051 205.208 115.051 205.208C115.051 205.208 114.784 205.35 114.53 205.634C113.912 206.191 113.063 207.654 112.653 208.655C112.531 209.036 112.325 209.41 112.233 209.485C112.027 209.858 111.668 211.764 111.843 211.697ZM124.562 204.13C125.183 203.545 125.869 203.163 126.353 203.099C128.657 203.132 129.736 204.731 130.13 207.274C130.25 208.046 130.404 213.548 130.441 214.312C130.385 214.869 130.407 214.928 130.193 215.103C128.43 216.137 127.451 214.661 127.284 214.363C127.042 213.973 127.053 213.017 127.021 210.51C126.917 207.882 127.182 207.205 126.719 206.765C124.864 206.749 124.004 212.263 123.478 213.871C123.08 215.041 122.849 215.102 122.189 215.233C120.673 215.195 120.458 214.526 120.291 214.228C120.124 213.93 121.063 204.513 121.294 204.17C121.637 203.557 123.116 203.676 123.793 204.504C123.977 204.635 123.949 204.632 124.562 204.13ZM134.741 207.312C135.696 206.197 137.752 205.052 138.864 204.909C140.098 204.667 141.299 205.04 142.425 205.884C144.125 206.897 143.972 208.711 143.548 209.288C143.114 209.976 143.045 211.798 143.143 214.481C143.658 222.58 141.017 224.23 137.247 223.939C135.787 223.906 134.876 223.449 134.698 222.7C134.508 222.062 134.792 221.752 135.653 221.585C137.038 221.245 138.746 221.893 139.598 219.558C140.232 217.708 139.933 213.655 139.944 213.543C139.944 213.543 137.76 215.126 135.381 215.283C131.475 215.512 132.001 211.654 132.196 210.829C132.78 209.199 134.454 207.649 134.741 207.312ZM140.274 207.976C140.572 207.528 140.731 207.065 140.731 207.065C140.742 206.954 140.118 207.004 139.856 207.091C136.895 208.287 135.578 211.054 135.419 211.516C135.096 212.215 135.024 212.94 135.275 212.965C135.525 212.99 137.066 211.934 137.751 211.27C138.846 210.169 139.815 208.915 140.274 207.976ZM144.705 209.966C145.624 207.806 147.231 206.363 149.05 205.897C153.182 205.099 153.67 207.54 153.74 208.531C152.758 213.302 148.492 213.467 147.676 213.47C147.314 213.434 147.341 213.437 147.392 213.779C147.649 216.281 150.805 216.23 151.159 216.35C151.58 216.645 152.034 217.169 152.009 217.42C151.904 218.478 149.14 218.54 147.189 217.502C143.422 215.775 144.329 210.913 144.705 209.966ZM149.455 210.018C150.132 209.438 150.561 208.805 150.611 208.304C150.736 207.894 150.661 207.802 150.357 208.025C150.357 208.025 150.174 208.176 149.998 208.243C149.611 208.457 148.733 209.355 148.413 209.745C148.204 210.146 147.745 211.085 147.745 211.085C147.82 211.177 148.959 210.475 149.455 210.018ZM153.966 212.409C155.074 209.762 158.305 207.27 161.286 206.723C161.972 206.623 163.005 206.698 163.451 207.024C165.204 208.352 164.073 209.252 163.003 208.977C162.318 208.796 162.02 208.963 160.866 209.524C159.649 210.162 158.724 210.97 157.666 212.272C157.189 212.815 157.159 213.121 156.947 213.551C159.404 212.895 160.795 213.343 161.288 213.477C163.475 214.117 163.855 216.237 162.055 217.634C159.88 219.415 157.219 219.853 155.926 218.711C155.533 218.418 155.277 217.886 155.402 217.477C155.602 216.596 156.193 216.88 156.686 217.014C157.347 217.164 157.842 216.988 158.728 216.57C159.263 216.286 160.082 215.692 159.923 215.592C159.923 215.592 157.321 215.726 156.391 215.746C154.134 215.802 153.615 214.231 153.699 213.395C153.732 213.061 153.857 212.651 153.966 212.409ZM182.94 209.136C182.957 208.969 183.169 208.821 183.261 208.746C183.743 208.428 184.762 208.643 185.35 208.955C185.927 209.378 185.997 209.526 186.042 210.768C186.007 214.788 185.331 219.589 185.119 220.018C184.56 221.116 183.643 221.559 182.35 221.262C181.317 220.905 180.366 219.994 179.641 218.515C179.265 217.774 179.265 217.774 179.028 218.454C178.085 221.427 176.784 221.494 176.254 221.442C175.02 221.403 174.276 220.963 173.925 219.971C173.624 219.322 173.453 217.645 173.469 215.789C173.494 213.85 173.953 210.097 174.273 209.426C175.599 208.263 176.307 209.628 176.541 209.821C176.683 210.088 176.664 210.283 176.633 211.434C176.517 213.448 175.93 217.639 176.899 215.822C177.306 214.849 178.052 212.447 178.272 211.935C178.748 210.829 178.848 210.67 179.712 210.756C181.498 210.906 181.562 211.672 181.551 212.628C181.535 214.483 181.761 216.447 182.129 217.272C182.271 217.539 182.299 217.542 182.508 215.452C182.63 214.227 182.802 212.499 182.832 211.348C182.854 210.281 182.924 209.303 182.94 209.136ZM188.683 209.681C188.777 209.015 188.939 208.806 189.031 208.731C189.421 208.488 190.365 208.611 190.814 208.909C192.288 209.928 191.252 211.569 190.717 211.572C188.232 211.943 188.605 210.18 188.683 209.681ZM188.074 214.657C188.199 213.403 188.441 212.949 188.792 212.815C189.143 212.681 190.16 212.923 190.556 213.188C191.099 213.664 191.189 213.898 191.028 216.921C191.025 217.512 190.992 218.972 191.026 220.045C191.06 221.117 191.288 221.365 191.001 222.265C190.706 223.249 188.904 222.703 188.58 222.558C188.029 222.166 187.769 221.661 187.661 221.06C187.546 219.669 187.79 216.373 188.074 214.657ZM193.306 209.748C193.639 205.279 193.898 203.813 194.271 203.738C194.92 203.437 196.149 203.813 196.45 204.462C196.665 204.849 196.615 205.351 196.496 209.081C196.213 211.923 196.145 217.403 196.313 220.797C196.263 222.424 196.23 223.04 195.717 223.101C194.929 223.388 193.839 223.026 193.399 222.363C193.173 222.088 193.084 221.854 193.047 221.09C192.743 217.936 192.801 214.819 193.306 209.748ZM198.857 210.302C199.19 205.833 199.449 204.367 199.822 204.292C200.471 203.991 201.7 204.366 202.001 205.015C202.216 205.403 202.166 205.904 202.047 209.635C201.763 212.477 201.695 217.957 201.863 221.35C201.813 222.978 201.78 223.593 201.268 223.655C200.479 223.942 199.39 223.58 198.949 222.917C198.724 222.641 198.634 222.407 198.598 221.644C198.293 218.49 198.351 215.372 198.857 210.302ZM2.11343 231.433C3.22159 228.786 6.45281 226.295 9.43379 225.748C10.1191 225.647 11.1528 225.722 11.5987 226.048C13.3515 227.377 12.2206 228.277 11.1506 228.001C10.4652 227.82 10.1671 227.988 9.01384 228.548C7.79648 229.186 6.87171 229.994 5.81334 231.296C5.33706 231.839 5.30649 232.146 5.09486 232.575C7.55203 231.919 8.94242 232.368 9.43559 232.501C11.6229 233.141 12.0023 235.262 10.2029 236.658C8.02741 238.439 5.36679 238.877 4.07374 237.735C3.68082 237.443 3.42436 236.91 3.54962 236.501C3.74999 235.62 4.34072 235.904 4.83389 236.038C5.49424 236.188 5.99012 236.013 6.87599 235.595C7.41084 235.31 8.2298 234.717 8.07097 234.616C8.07097 234.616 5.46878 234.751 4.53823 234.77C2.2815 234.827 1.76286 233.256 1.84622 232.42C1.87957 232.085 2.00483 231.676 2.11343 231.433ZM14.6325 221.623C14.8829 220.241 14.8968 220.102 15.2701 220.027C15.7798 219.712 17.0365 220.09 17.3403 220.712C17.4407 220.834 17.4938 221.43 17.4243 222.127C17.4301 223.197 17.1505 229.669 17.081 230.365C17.1702 230.599 17.29 230.527 17.8581 229.627C18.9444 228.328 19.2034 227.988 19.8246 227.684C22.6746 227.04 23.3522 228.993 23.656 229.614C24.0352 230.609 24.2841 234.038 24.126 236.752C24.0454 237.56 24.0846 238.296 24.1738 238.53C24.2269 239.126 24.1072 239.48 23.6113 239.655C21.1708 240.144 20.9392 238.798 20.7525 238.414C21.1585 235.753 20.9825 233.85 20.9124 232.295C20.8062 231.103 20.458 231.209 19.9455 231.833C19.4136 232.652 18.2161 234.503 17.1054 238.303C17.0582 238.777 16.8019 239.089 16.6794 239.189C16.1474 239.727 14.849 239.485 14.1105 238.708C13.7955 238.198 13.7955 238.198 13.823 236.794C13.805 232.177 14.2876 223.953 14.6325 221.623ZM28.4383 229.669C29.4242 228.248 30.0036 227.799 30.7809 227.623C34.5033 228.107 35.3256 229.737 35.7803 231.949C35.9422 232.866 35.7754 234.537 35.4163 235.599C33.8962 239.837 30.2187 240.314 28.6556 239.905C25.5351 239.594 25.8463 236.473 26.0271 235.507C26.333 233.286 27.1711 231.372 28.4383 229.669ZM32.251 234.608C32.8079 233.256 32.7823 231.256 32.197 230.353C32.1217 230.262 31.9545 230.245 31.9545 230.245C31.5366 230.203 30.0216 232.416 29.423 234.185C28.9498 235.545 28.9754 237.545 29.318 237.495C31.4577 237.202 31.8083 235.661 32.251 234.608ZM46.4338 229.691C46.4505 229.524 46.6622 229.376 46.7541 229.301C47.236 228.983 48.2558 229.197 48.8438 229.509C49.4206 229.933 49.4903 230.08 49.5352 231.323C49.5 235.343 48.8243 240.144 48.6127 240.573C48.053 241.671 47.1365 242.114 45.8436 241.816C44.8099 241.46 43.8596 240.549 43.1348 239.07C42.7585 238.329 42.7585 238.329 42.5218 239.009C41.5781 241.982 40.277 242.049 39.7477 241.996C38.5134 241.958 37.7694 241.518 37.4181 240.526C37.117 239.877 36.9466 238.2 36.9628 236.344C36.9874 234.405 37.4461 230.652 37.7663 229.98C39.0922 228.818 39.8002 230.183 40.0343 230.375C40.1765 230.643 40.157 230.838 40.1267 231.988C40.0102 234.003 39.4235 238.193 40.3926 236.377C40.7991 235.404 41.5451 233.002 41.7651 232.49C42.2412 231.383 42.3414 231.224 43.2052 231.311C44.9911 231.461 45.0554 232.227 45.0445 233.182C45.0283 235.038 45.2545 237.002 45.6225 237.827C45.7646 238.094 45.7925 238.097 46.0009 236.007C46.1231 234.781 46.2954 233.054 46.3258 231.903C46.3478 230.836 46.4172 229.858 46.4338 229.691ZM62.404 227.626C62.8995 226.043 63.618 225.045 64.738 224.819C65.6239 224.683 66.6743 224.872 67.3933 225.281C68.611 226.05 68.9039 227.627 67.8649 228.17C66.9065 228.469 66.2879 227.9 66.0872 227.655C65.8977 227.299 65.8977 227.299 65.7529 227.622C64.7 228.586 64.9271 233.927 64.8937 234.262C64.9413 234.913 64.9385 234.941 65.4679 234.994C66.3316 235.08 66.8498 235.245 67.2261 235.704C67.6915 236.398 67.4326 237.019 66.4352 237.145C66.1009 237.111 65.5882 237.173 65.3542 237.262C64.9252 237.332 64.8973 237.329 64.956 237.87C64.7668 238.92 65.2224 244.509 65.0776 244.832C64.6683 245.551 63.0802 245.393 62.414 244.454C62.113 244.086 62.0349 243.741 61.8838 241.024C61.7745 238.734 61.8271 237.642 61.5931 237.731C61.0415 237.901 59.8713 237.785 59.5592 237.528C58.5561 237.147 58.7425 236.124 59.5058 235.806C61.7597 235.497 61.8376 235.279 61.7595 234.934C61.7453 233.948 62.2175 228.367 62.404 227.626ZM70.1222 233.826C71.1081 232.405 71.6875 231.956 72.4647 231.781C76.1871 232.264 77.0094 233.894 77.4642 236.106C77.626 237.023 77.4593 238.694 77.1002 239.756C75.5801 243.994 71.9025 244.471 70.3394 244.062C67.2189 243.751 67.5301 240.631 67.711 239.664C68.0168 237.443 68.8549 235.529 70.1222 233.826ZM73.9349 238.765C74.4917 237.414 74.4661 235.413 73.8808 234.511C73.8056 234.419 73.6384 234.402 73.6384 234.402C73.2205 234.36 71.7054 236.573 71.1069 238.342C70.6336 239.702 70.6592 241.702 71.0019 241.652C73.1415 241.359 73.4922 239.818 73.9349 238.765ZM82.1222 234.713C82.7237 233.76 83.7488 233.075 84.5345 232.816C85.1362 232.707 85.8913 232.754 86.4569 233.007C88.2904 233.809 88.0594 234.715 87.8589 235.032C87.5748 235.342 87.143 235.439 86.5662 235.297C85.4015 234.844 84.9754 235.73 84.4072 236.348C83.5133 237.694 83.288 239.388 82.52 242.857C82.3447 243.768 82.097 244.56 82.0886 244.643C81.8881 244.961 79.7681 245.903 79.2187 243.794C79.1518 243.619 79.0969 236.269 79.1803 235.433C79.2301 234.087 79.2607 234.062 79.4445 233.912C79.8039 233.694 80.637 233.806 81.1051 234.19C81.4228 234.39 81.5008 234.455 81.6347 234.806C81.7518 235.324 81.7212 235.349 82.1222 234.713ZM99.29 236.735C100.276 235.314 100.855 234.865 101.633 234.69C105.355 235.173 106.177 236.803 106.632 239.015C106.794 239.932 106.627 241.603 106.268 242.665C104.748 246.903 101.07 247.38 99.5072 246.971C96.3867 246.66 96.6979 243.54 96.8788 242.573C97.1846 240.352 98.0228 238.438 99.29 236.735ZM103.103 241.674C103.66 240.323 103.634 238.322 103.049 237.42C102.973 237.328 102.806 237.311 102.806 237.311C102.388 237.269 100.873 239.482 100.275 241.251C99.8014 242.611 99.827 244.611 100.17 244.561C102.309 244.268 102.66 242.727 103.103 241.674ZM112.068 227.851C112.106 227.461 112.299 227.227 112.563 227.113C113.246 227.04 114.238 227.533 114.422 228.227C114.62 228.781 114.59 230.213 114.37 232.414C114.151 234.615 114.148 234.643 115.081 234.596C117.619 234.539 117.458 235.874 117.28 236.25C117.102 236.626 116.7 236.699 115.213 237.226C114.004 237.499 114.004 237.499 113.615 241.4C113.406 243.489 113.212 245.44 113.187 245.69C113.259 246.373 113.262 246.345 113.805 246.259C114.976 246.375 115.689 247.122 115.611 247.902C115.483 249.184 113.497 249.351 111.594 248.683C109.487 247.798 109.735 246.162 110.113 242.373C110.351 238.57 110.379 238.573 109.711 238.506C108.777 238.554 108.161 238.239 107.838 237.531C107.612 237.256 107.626 237.116 107.902 236.891C108.08 236.514 109.024 236.074 110.247 235.661C110.93 235.589 110.899 235.614 111.069 233.914C111.302 231.574 111.739 228.606 112.068 227.851ZM119.169 232.049C119.419 230.667 119.433 230.527 119.806 230.452C120.316 230.137 121.573 230.516 121.876 231.137C121.977 231.26 122.03 231.856 121.96 232.552C121.966 233.622 121.687 240.094 121.617 240.791C121.706 241.025 121.826 240.952 122.394 240.052C123.48 238.754 123.739 238.414 124.361 238.11C127.211 237.466 127.888 239.418 128.192 240.04C128.571 241.034 128.82 244.464 128.662 247.178C128.582 247.986 128.621 248.721 128.71 248.955C128.763 249.551 128.643 249.905 128.147 250.081C125.707 250.569 125.475 249.223 125.289 248.839C125.695 246.178 125.519 244.275 125.449 242.721C125.342 241.528 124.994 241.634 124.482 242.258C123.95 243.078 122.752 244.928 121.642 248.729C121.594 249.202 121.338 249.514 121.215 249.615C120.683 250.152 119.385 249.91 118.647 249.133C118.332 248.624 118.332 248.624 118.359 247.219C118.341 242.603 118.824 234.378 119.169 232.049ZM130.991 242.767C131.91 240.607 133.517 239.164 135.337 238.698C139.468 237.9 139.956 240.341 140.026 241.332C139.044 246.103 134.779 246.268 133.962 246.271C133.6 246.235 133.628 246.238 133.678 246.58C133.935 249.082 137.092 249.031 137.446 249.151C137.867 249.446 138.321 249.97 138.296 250.221C138.19 251.279 135.426 251.341 133.476 250.303C129.709 248.576 130.616 243.714 130.991 242.767ZM135.742 242.819C136.419 242.239 136.848 241.606 136.898 241.105C137.023 240.695 136.948 240.603 136.644 240.826C136.644 240.826 136.46 240.977 136.285 241.044C135.897 241.258 135.02 242.156 134.7 242.546C134.491 242.947 134.031 243.886 134.031 243.886C134.107 243.978 135.246 243.276 135.742 242.819ZM144.43 240.928C145.032 239.975 146.057 239.289 146.843 239.03C147.444 238.921 148.199 238.968 148.765 239.221C150.598 240.023 150.367 240.929 150.167 241.246C149.883 241.556 149.451 241.653 148.874 241.511C147.71 241.058 147.284 241.944 146.715 242.562C145.821 243.908 145.596 245.602 144.828 249.071C144.653 249.982 144.405 250.774 144.397 250.857C144.196 251.175 142.076 252.117 141.527 250.008C141.46 249.833 141.405 242.483 141.488 241.647C141.538 240.301 141.569 240.276 141.753 240.126C142.112 239.908 142.945 240.02 143.413 240.404C143.731 240.605 143.809 240.669 143.943 241.02C144.06 241.538 144.029 241.563 144.43 240.928ZM165.749 241.112C165.841 241.037 166.052 240.889 166.144 240.814C168.34 240.526 168.858 241.816 168.819 242.206C168.811 242.29 168.346 243.285 167.873 244.363C166.67 246.832 165.242 251.557 164.693 253.388C164.655 253.778 164.535 254.132 164.443 254.207C163.922 254.915 162.055 254.447 161.693 253.567C161.626 253.392 161.38 252.185 161.149 250.84C159.75 241.161 159.736 240.738 160.221 240.392C161.589 239.937 161.974 240.595 162.224 240.901C162.486 241.096 162.774 242.166 163.184 244.261C163.499 246.459 163.505 246.403 163.644 245.855C163.755 245.584 165.543 241.485 165.749 241.112ZM170.806 242.067C170.901 241.401 171.062 241.192 171.154 241.117C171.544 240.874 172.489 240.996 172.938 241.294C174.412 242.314 173.376 243.955 172.841 243.958C170.356 244.329 170.729 242.565 170.806 242.067ZM170.198 247.043C170.323 245.789 170.565 245.335 170.916 245.201C171.267 245.067 172.284 245.309 172.68 245.574C173.223 246.05 173.312 246.284 173.151 249.307C173.149 249.898 173.116 251.358 173.149 252.43C173.183 253.503 173.412 253.751 173.125 254.651C172.83 255.634 171.027 255.089 170.704 254.944C170.152 254.551 169.893 254.047 169.784 253.445C169.67 252.055 169.914 248.759 170.198 247.043ZM175.097 247.166C176.016 245.006 177.623 243.563 179.442 243.097C183.574 242.299 184.062 244.739 184.132 245.731C183.15 250.501 178.884 250.667 178.068 250.67C177.706 250.634 177.733 250.636 177.784 250.979C178.041 253.481 181.197 253.43 181.551 253.55C181.972 253.845 182.426 254.369 182.401 254.619C182.296 255.678 179.532 255.74 177.581 254.701C173.814 252.975 174.721 248.113 175.097 247.166ZM179.847 247.217C180.524 246.638 180.953 246.005 181.003 245.504C181.128 245.094 181.053 245.002 180.749 245.225C180.749 245.225 180.566 245.375 180.39 245.442C180.003 245.657 179.125 246.554 178.805 246.945C178.596 247.346 178.137 248.285 178.137 248.285C178.212 248.377 179.351 247.674 179.847 247.217ZM194.531 244.461C194.548 244.294 194.76 244.146 194.851 244.071C195.333 243.753 196.353 243.967 196.941 244.279C197.518 244.702 197.588 244.85 197.633 246.093C197.597 250.113 196.922 254.914 196.71 255.343C196.15 256.441 195.234 256.884 193.941 256.586C192.907 256.23 191.957 255.319 191.232 253.84C190.856 253.099 190.856 253.099 190.619 253.779C189.675 256.752 188.374 256.819 187.845 256.766C186.611 256.727 185.867 256.287 185.515 255.296C185.214 254.647 185.044 252.969 185.06 251.114C185.085 249.175 185.543 245.422 185.864 244.75C187.19 243.588 187.898 244.953 188.132 245.145C188.274 245.413 188.254 245.608 188.224 246.758C188.108 248.773 187.521 252.963 188.49 251.146C188.896 250.174 189.642 247.772 189.862 247.259C190.339 246.153 190.439 245.994 191.303 246.08C193.088 246.23 193.153 246.997 193.142 247.952C193.126 249.808 193.352 251.772 193.72 252.597C193.862 252.864 193.89 252.867 194.098 250.777C194.22 249.551 194.393 247.824 194.423 246.673C194.445 245.606 194.515 244.628 194.531 244.461ZM199.095 249.559C200.014 247.399 201.621 245.956 203.44 245.49C207.572 244.692 208.06 247.133 208.13 248.125C207.148 252.895 202.882 253.06 202.066 253.063C201.704 253.027 201.732 253.03 201.782 253.372C202.039 255.874 205.195 255.823 205.549 255.943C205.97 256.238 206.424 256.762 206.399 257.013C206.294 258.071 203.53 258.133 201.579 257.095C197.812 255.368 198.719 250.506 199.095 249.559ZM203.845 249.611C204.522 249.031 204.951 248.398 205.001 247.897C205.126 247.487 205.051 247.395 204.747 247.618C204.747 247.618 204.564 247.769 204.388 247.836C204.001 248.05 203.124 248.948 202.803 249.338C202.594 249.739 202.135 250.678 202.135 250.678C202.21 250.77 203.35 250.068 203.845 249.611ZM212.534 247.72C213.135 246.767 214.16 246.081 214.946 245.822C215.548 245.713 216.303 245.76 216.869 246.013C218.702 246.815 218.471 247.721 218.271 248.038C217.986 248.348 217.555 248.445 216.978 248.303C215.813 247.85 215.387 248.736 214.819 249.354C213.925 250.7 213.7 252.394 212.932 255.863C212.756 256.774 212.509 257.566 212.5 257.649C212.3 257.967 210.18 258.909 209.63 256.8C209.563 256.625 209.509 249.275 209.592 248.439C209.642 247.093 209.672 247.068 209.856 246.918C210.216 246.7 211.049 246.812 211.517 247.196C211.834 247.397 211.912 247.461 212.046 247.812C212.163 248.33 212.133 248.355 212.534 247.72ZM216.981 252.862C218.089 250.215 221.32 247.724 224.301 247.177C224.987 247.076 226.02 247.151 226.466 247.477C228.219 248.805 227.088 249.706 226.018 249.43C225.333 249.249 225.035 249.416 223.882 249.977C222.664 250.615 221.739 251.423 220.681 252.725C220.205 253.268 220.174 253.575 219.963 254.004C222.42 253.348 223.81 253.797 224.303 253.93C226.491 254.57 226.87 256.691 225.071 258.087C222.895 259.868 220.234 260.306 218.941 259.164C218.548 258.871 218.292 258.339 218.417 257.93C218.618 257.049 219.208 257.333 219.702 257.467C220.362 257.617 220.858 257.442 221.744 257.023C222.279 256.739 223.097 256.145 222.939 256.045C222.939 256.045 220.336 256.18 219.406 256.199C217.149 256.256 216.631 254.684 216.714 253.849C216.747 253.514 216.873 253.105 216.981 252.862Z" fill="white"/>
<path d="M131.241 163.84C146.931 133.547 150.315 110.862 144.711 85.4011C138.219 55.9105 119.688 19.7157 88.568 11.8693" stroke="white" stroke-width="5" stroke-linecap="round" stroke-linejoin="round"/>
<path d="M88.1323 9.99207C89.1621 14.6704 91.2877 18.8834 92.8831 23.3791C93.382 24.7846 93.904 26.2352 94.2252 27.6941C94.2929 28.0019 94.3007 28.7182 94.6255 28.8" stroke="white" stroke-width="5" stroke-linecap="round" stroke-linejoin="round"/>
<path d="M88.5992 9.26186C91.3323 9.066 93.8933 9.53019 96.6102 9.62504C98.5346 9.69223 100.407 9.51081 102.302 9.19145C105.381 8.67227 108.502 8.01831 111.552 7.34692" stroke="white" stroke-width="5" stroke-linecap="round" stroke-linejoin="round"/>
</svg>
