<svg width="244" height="261" viewBox="0 0 244 261" fill="none" xmlns="http://www.w3.org/2000/svg">
<path d="M13.7542 24.3171C14.3486 19.7147 15.8647 17.1378 18.2083 16.3952C20.0591 15.8753 22.1347 16.409 23.0395 17.5942C23.9442 18.7794 23.7147 20.2498 22.6801 20.3053C21.8413 20.3503 20.7798 19.9025 20.7574 19.4831C20.7469 19.2874 20.4003 18.5769 20.2885 18.5829C20.2885 18.5829 20.0693 18.6788 19.8796 18.8012C18.0672 19.5152 17.7309 23.1785 17.5742 23.916C17.0302 27.366 17.6655 31.3698 18.9737 32.7577C19.51 33.3458 20.0367 33.2335 21.4291 32.0091C23.7167 29.6993 25.0354 31.2829 25.2416 31.4682C25.5004 34.2022 21.5167 35.7338 19.8611 35.7104C15.2492 35.9858 14.4771 32.0455 13.9527 30.1108C13.6956 28.9749 13.6199 25.474 13.7542 24.3171ZM25.9312 17.6074C25.968 16.2034 25.9605 16.0636 26.318 15.9322C26.7738 15.5433 28.0735 15.7259 28.4684 16.2936C28.5863 16.3994 28.7296 16.9806 28.7671 17.6796C28.9359 18.7361 29.6458 25.1753 29.6833 25.8743C29.8071 26.092 29.9145 26.0021 30.3388 25.0259C31.2144 23.577 31.4186 23.2015 31.9863 22.8065C34.7048 21.7354 35.6721 23.5622 36.067 24.1299C36.5933 25.055 37.3619 28.4067 37.6192 31.1128C37.6627 31.9236 37.8135 32.6446 37.9374 32.8623C38.0807 33.4434 38.0163 33.8114 37.553 34.0606C35.2154 34.915 34.7814 33.6204 34.5383 33.2689C34.5341 30.5772 34.0702 28.7234 33.764 27.1976C33.4774 26.0353 33.1493 26.1931 32.738 26.8881C32.3371 27.7789 31.4355 29.7901 30.917 33.7155C30.9425 34.1908 30.7368 34.5383 30.631 34.6561C30.1871 35.2688 28.867 35.2274 28.0187 34.5719C27.6297 34.1161 27.6297 34.1161 27.4429 32.7241C26.7217 28.1642 25.9453 19.962 25.9312 17.6074ZM42.0096 22.97C42.9886 21.88 43.3621 21.5235 43.9652 21.2668C44.5713 21.066 45.5779 21.0121 46.2095 21.2866C47.1252 21.6301 47.4363 22.2022 47.1617 22.8339C47.0059 23.0665 46.9795 23.096 47.3315 23.3856C47.9486 23.9133 47.8229 24.7051 47.8708 25.5998C48.0792 27.916 48.1636 28.4442 49.1439 31.5602C49.4005 32.1633 49.5069 32.5782 49.432 32.7505C49.3736 33.2303 48.2907 33.4286 47.4679 33.2484C46.8967 33.0547 46.661 32.843 46.0328 31.5869C46.0238 31.4191 45.931 31.2559 45.8471 31.2604C45.8471 31.2604 45.7208 31.5195 45.5695 31.836C45.2216 32.6679 44.616 33.4014 44.0129 33.658C43.1157 34.1828 41.7322 34.0047 41.161 33.811C40.2408 33.3836 39.4204 32.7266 39.3414 31.7775C38.9642 26.8346 41.4804 23.5592 42.0096 22.97ZM42.3401 31.2241C45.0332 29.6777 44.5216 24.3214 44.5216 24.3214C44.5216 24.3214 44.2789 24.5026 44.0717 24.8222C43.5455 25.4673 42.929 27.0426 42.6769 28.0936C42.6141 28.4895 42.4673 28.89 42.3879 28.9783C42.2411 29.3788 42.1769 31.317 42.3401 31.2241ZM53.7572 21.8072C54.2819 21.1341 54.901 20.6522 55.3703 20.5149C57.6525 20.1962 58.9622 21.6121 59.7388 24.0661C59.975 24.8105 60.9664 30.2252 61.1187 30.9741C61.1487 31.5333 61.1797 31.5877 60.9944 31.7939C59.4093 33.0846 58.2174 31.7746 58.0067 31.5055C57.7076 31.157 57.5727 30.2109 57.1597 27.7374C56.6568 25.1567 56.815 24.4472 56.2907 24.0827C54.4544 24.3495 54.4452 29.93 54.1702 31.5991C53.9551 32.8164 53.7359 32.9122 53.1033 33.1424C51.5995 33.3353 51.2854 32.7072 51.0747 32.4381C50.864 32.169 50.3571 22.7186 50.5334 22.3446C50.7785 21.6865 52.2588 21.5791 53.0542 22.2935C53.256 22.3948 53.228 22.3963 53.7572 21.8072ZM64.3021 23.4007C65.0764 22.1535 66.9337 20.7079 68.0106 20.3978C69.1934 19.9698 70.4371 20.1555 71.6784 20.818C73.5128 21.5608 73.6382 23.3767 73.3077 24.0113C72.9833 24.7577 73.1926 26.5691 73.6985 29.2058C75.4415 37.1319 73.083 39.1651 69.3129 39.4514C67.865 39.6412 66.8949 39.3287 66.6042 38.6153C66.3196 38.0136 66.5533 37.6646 67.3786 37.368C68.6951 36.8207 70.4821 37.2016 70.9682 34.764C71.3136 32.8388 70.4002 28.878 70.3942 28.7662C70.3942 28.7662 68.4771 30.6635 66.1494 31.1809C62.324 32.003 62.2553 28.1091 62.3222 27.2643C62.6516 25.5642 64.07 23.7777 64.3021 23.4007ZM69.8721 23.2141C70.0983 22.7253 70.1846 22.244 70.1846 22.244C70.1786 22.1322 69.5695 22.277 69.3239 22.4023C66.5794 24.0357 65.6993 26.971 65.613 27.4523C65.4003 28.1928 65.4393 28.9197 65.691 28.9062C65.9426 28.8927 67.3041 27.614 67.8802 26.854C68.7943 25.5993 69.5611 24.2122 69.8721 23.2141ZM74.554 24.5053C75.133 22.231 76.5015 20.5593 78.2284 19.8218C82.1902 18.4035 83.0446 20.7411 83.2648 21.7107C83.021 26.5748 78.8305 27.3884 78.0242 27.5157C77.6607 27.5352 77.6887 27.5337 77.7905 27.8647C78.4258 30.2982 81.5378 29.7668 81.9058 29.8312C82.3666 30.0588 82.8954 30.5072 82.9089 30.7588C82.9659 31.8213 80.2438 32.3037 78.1577 31.5744C74.1714 30.4423 74.3269 25.4988 74.554 24.5053ZM79.2567 23.8324C79.8373 23.1564 80.1648 22.4658 80.1378 21.9626C80.1992 21.5387 80.1108 21.4593 79.8447 21.7259C79.8447 21.7259 79.686 21.9027 79.5227 21.9956C79.1727 22.2667 78.4423 23.2873 78.1852 23.7217C78.04 24.1501 77.729 25.1481 77.729 25.1481C77.8174 25.2275 78.8363 24.3597 79.2567 23.8324ZM95.0264 10.4247C95.0054 10.0332 95.1596 9.77258 95.4038 9.61929C96.0673 9.4435 97.1228 9.77945 97.4105 10.437C97.6906 10.9547 97.8789 12.3747 97.9974 14.5835C98.1158 16.7923 98.1173 16.8203 99.0325 16.631C101.532 16.1885 101.576 17.5321 101.458 17.931C101.339 18.3299 100.953 18.4628 99.5634 19.2103C98.4101 19.6647 98.4101 19.6647 98.62 23.5791C98.7325 25.6761 98.8374 27.6333 98.8509 27.8849C99.0267 28.5484 99.0252 28.5205 99.549 28.3522C100.723 28.2892 101.542 28.9182 101.584 29.7011C101.653 30.9873 99.7154 31.4557 97.7327 31.0854C95.5159 30.5313 95.5113 28.8772 95.3074 25.0746C94.9636 21.2796 94.9916 21.2781 94.3205 21.3141C93.4054 21.5034 92.7488 21.2862 92.3214 20.6362C92.0562 20.398 92.0487 20.2582 92.2869 19.9931C92.4057 19.5942 93.2719 19.0149 94.4177 18.4207C95.0813 18.2449 95.0548 18.2744 94.9633 16.5688C94.8374 14.2202 94.8167 11.221 95.0264 10.4247ZM102.684 13.4909C102.721 12.087 102.714 11.9472 103.071 11.8158C103.527 11.4269 104.826 11.6095 105.221 12.1772C105.339 12.283 105.483 12.8642 105.52 13.5632C105.689 14.6196 106.399 21.0589 106.436 21.7579C106.56 21.9755 106.667 21.8857 107.092 20.9095C107.967 19.4606 108.172 19.0851 108.739 18.6901C111.458 17.619 112.425 19.4458 112.82 20.0135C113.346 20.9386 114.115 24.2903 114.372 26.9964C114.416 27.8072 114.567 28.5282 114.69 28.7458C114.834 29.327 114.769 29.695 114.306 29.9442C111.968 30.7986 111.534 29.504 111.291 29.1525C111.287 26.4608 110.823 24.607 110.517 23.0812C110.23 21.9189 109.902 22.0767 109.491 22.7717C109.09 23.6625 108.188 25.6736 107.67 29.599C107.695 30.0744 107.49 30.4219 107.384 30.5397C106.94 31.1524 105.62 31.111 104.772 30.4555C104.383 29.9997 104.383 29.9997 104.196 28.6077C103.475 24.0478 102.698 15.8456 102.684 13.4909ZM116.002 22.2823C116.581 20.008 117.95 18.3364 119.677 17.5988C123.638 16.1806 124.493 18.5182 124.713 19.4878C124.469 24.3518 120.279 25.1654 119.472 25.2928C119.109 25.3123 119.137 25.3108 119.239 25.6418C119.874 28.0753 122.986 27.5438 123.354 27.6082C123.815 27.8359 124.344 28.2842 124.357 28.5358C124.414 29.5983 121.692 30.0808 119.606 29.3515C115.62 28.2193 115.775 23.2759 116.002 22.2823ZM120.705 21.6095C121.286 20.9334 121.613 20.2429 121.586 19.7396C121.647 19.3157 121.559 19.2363 121.293 19.503C121.293 19.503 121.134 19.6797 120.971 19.7726C120.621 20.0437 119.891 21.0643 119.633 21.4987C119.488 21.9271 119.177 22.9252 119.177 22.9252C119.266 23.0046 120.285 22.1368 120.705 21.6095ZM136.577 19.5245C137.351 18.2772 139.209 16.8317 140.286 16.5215C141.468 16.0936 142.712 16.2792 143.953 16.9417C145.788 17.6845 145.913 19.5004 145.583 20.135C145.258 20.8815 145.468 22.6929 145.974 25.3296C147.717 33.2556 145.358 35.2888 141.588 35.5751C140.14 35.765 139.17 35.4525 138.879 34.739C138.595 34.1374 138.828 33.7884 139.654 33.4918C140.97 32.9445 142.757 33.3253 143.243 30.8878C143.589 28.9625 142.675 25.0017 142.669 24.8899C142.669 24.8899 140.752 26.7873 138.424 27.3047C134.599 28.1268 134.53 24.2328 134.597 23.388C134.927 21.688 136.345 19.9014 136.577 19.5245ZM142.147 19.3379C142.373 18.8491 142.46 18.3678 142.46 18.3678C142.454 18.2559 141.845 18.4008 141.599 18.5261C138.854 20.1594 137.974 23.0948 137.888 23.5761C137.675 24.3165 137.714 25.0435 137.966 25.03C138.218 25.0165 139.579 23.7377 140.155 22.9778C141.069 21.723 141.836 20.336 142.147 19.3379ZM149.81 17.3006C150.259 16.2671 151.168 15.4332 151.905 15.0572C152.483 14.8579 153.236 14.7895 153.834 14.9537C155.768 15.4669 155.678 16.397 155.528 16.7416C155.294 17.0906 154.883 17.2529 154.291 17.2005C153.071 16.9294 152.785 17.8701 152.317 18.5681C151.639 20.0346 151.674 21.7431 151.444 25.2885C151.41 26.2157 151.285 27.0356 151.29 27.1194C151.14 27.4639 149.188 28.7183 148.324 26.7177C148.231 26.5544 147.057 19.2989 147.012 18.4601C146.856 17.1225 146.883 17.0931 147.041 16.9163C147.363 16.6467 148.204 16.6297 148.725 16.9382C149.069 17.0879 149.156 17.1394 149.342 17.4659C149.537 17.9602 149.51 17.9896 149.81 17.3006ZM158.436 16.7258C159.415 15.6358 159.788 15.2793 160.392 15.0226C160.998 14.8219 162.004 14.7679 162.636 15.0425C163.552 15.3859 163.863 15.9581 163.588 16.5897C163.432 16.8224 163.406 16.8518 163.758 17.1414C164.375 17.6691 164.249 18.461 164.297 19.3557C164.506 21.6718 164.59 22.2001 165.57 25.3161C165.827 25.9192 165.933 26.3341 165.858 26.5063C165.8 26.9861 164.717 27.1844 163.894 27.0042C163.323 26.8105 163.087 26.5989 162.459 25.3427C162.45 25.1749 162.357 25.0117 162.274 25.0162C162.274 25.0162 162.147 25.2753 161.996 25.5919C161.648 26.4237 161.042 27.1572 160.439 27.4139C159.542 27.9387 158.159 27.7605 157.587 27.5668C156.667 27.1395 155.847 26.4825 155.768 25.5333C155.391 20.5904 157.907 17.315 158.436 16.7258ZM158.767 24.9799C161.46 23.4335 160.948 18.0772 160.948 18.0772C160.948 18.0772 160.705 18.2585 160.498 18.578C159.972 19.2231 159.355 20.7984 159.103 21.8494C159.04 22.2453 158.894 22.6458 158.814 22.7342C158.668 23.1346 158.603 25.0728 158.767 24.9799ZM172.328 8.49399C172.316 8.27032 172.534 8.14648 172.752 8.02264C173.265 7.65864 174.375 7.96363 174.857 8.58271C175.385 9.03104 175.589 14.4038 175.688 16.2492C175.886 19.9399 176.057 21.0243 176.985 24.2272C177.29 25.725 177.296 25.8368 176.873 26.3082C176.667 26.6557 175.409 26.7232 174.943 26.4116C174.714 26.3118 174.714 26.3118 174.496 26.4356C174.073 26.907 172.29 27.6475 171.305 27.5882C168.296 27.9458 167.762 26.3482 167.398 25.8349C166.849 22.9201 168.108 20.7776 168.599 19.9942C169.395 18.6336 170.936 17.0368 171.886 16.4531C172.321 16.2054 172.323 16.2334 172.258 15.0311C172.159 13.1858 172.228 8.72367 172.328 8.49399ZM173.348 23.3287C173.196 22.5797 172.873 20.7464 172.845 20.2152C172.827 19.8796 172.726 19.5766 172.726 19.5766C172.614 19.5826 172.401 19.7903 172.084 20.1438C170.857 21.836 169.968 25.1363 170.511 25.3315C170.853 25.4253 171.813 25.0373 172.646 24.3477C173.366 23.6642 173.478 23.6582 173.348 23.3287ZM178.536 14.2738C178.528 13.6013 178.656 13.3701 178.735 13.2817C179.084 12.9826 180.036 12.9596 180.525 13.1858C182.137 13.9685 181.363 15.7485 180.835 15.8329C178.435 16.5785 178.535 14.7786 178.536 14.2738ZM178.693 19.2846C178.625 18.0264 178.796 17.5406 179.122 17.3549C179.449 17.1691 180.491 17.2534 180.922 17.4546C181.532 17.8425 181.655 18.0602 181.957 21.0724C182.045 21.6565 182.234 23.1044 182.431 24.1594C182.628 25.2144 182.892 25.4246 182.745 26.3577C182.604 27.3748 180.739 27.1103 180.397 27.0164C179.792 26.7124 179.459 26.2536 179.26 25.6754C178.935 24.3189 178.674 21.0241 178.693 19.2846ZM183.554 18.6594C184.133 16.3851 185.501 14.7134 187.228 13.9759C191.19 12.5577 192.044 14.8953 192.264 15.8649C192.021 20.7289 187.83 21.5425 187.024 21.6699C186.66 21.6894 186.688 21.6879 186.79 22.0189C187.425 24.4524 190.537 23.9209 190.905 23.9853C191.366 24.213 191.895 24.6613 191.908 24.9129C191.965 25.9754 189.243 26.4579 187.157 25.7286C183.171 24.5964 183.326 19.653 183.554 18.6594ZM188.256 17.9866C188.837 17.3105 189.164 16.62 189.137 16.1167C189.199 15.6928 189.11 15.6134 188.844 15.8801C188.844 15.8801 188.686 16.0568 188.522 16.1497C188.172 16.4208 187.442 17.4414 187.185 17.8758C187.04 18.3042 186.729 19.3023 186.729 19.3023C186.817 19.3817 187.836 18.5139 188.256 17.9866ZM197.024 14.1235C197.549 13.4504 198.168 12.9686 198.637 12.8312C200.919 12.5126 202.229 13.9285 203.006 16.3824C203.242 17.1268 204.233 22.5415 204.385 23.2904C204.415 23.8496 204.446 23.904 204.261 24.1102C202.676 25.401 201.484 24.0909 201.273 23.8218C200.974 23.4733 200.84 22.5272 200.426 20.0538C199.924 17.473 200.082 16.7635 199.557 16.3991C197.721 16.6658 197.712 22.2463 197.437 23.9154C197.222 25.1327 197.003 25.2286 196.37 25.4588C194.866 25.6516 194.552 25.0235 194.341 24.7544C194.131 24.4853 193.624 15.0349 193.8 14.6609C194.045 14.0028 195.526 13.8954 196.321 14.6098C196.523 14.7112 196.495 14.7127 197.024 14.1235ZM207.466 4.39429C207.445 4.00285 207.6 3.74221 207.844 3.58892C208.507 3.41313 209.563 3.74909 209.85 4.40662C210.131 4.92437 210.319 6.34432 210.437 8.55314C210.556 10.762 210.557 10.7899 211.472 10.6006C213.972 10.1581 214.016 11.5017 213.898 11.9006C213.779 12.2996 213.393 12.4324 212.003 13.1799C210.85 13.6343 210.85 13.6343 211.06 17.5487C211.172 19.6457 211.277 21.6029 211.291 21.8545C211.467 22.5181 211.465 22.4901 211.989 22.3218C213.163 22.2588 213.982 22.8879 214.024 23.6708C214.093 24.9569 212.155 25.4253 210.173 25.055C207.956 24.5009 207.951 22.8468 207.747 19.0443C207.404 15.2492 207.432 15.2477 206.761 15.2837C205.845 15.473 205.189 15.2559 204.761 14.6058C204.496 14.3677 204.489 14.2279 204.727 13.9627C204.846 13.5638 205.712 12.9846 206.858 12.3904C207.521 12.2146 207.495 12.244 207.403 10.5385C207.277 8.18986 207.257 5.19066 207.466 4.39429ZM216.424 18.4107C217.116 15.6256 219.93 12.6707 222.792 11.6759C223.455 11.4722 224.488 11.3888 224.978 11.6429C226.913 12.6887 225.932 13.7508 224.833 13.6415C224.128 13.5672 223.859 13.7779 222.804 14.5074C221.698 15.3238 220.907 16.2635 220.06 17.711C219.672 18.3206 219.688 18.6282 219.545 19.0845C221.873 18.0623 223.316 18.2934 223.823 18.3503C226.083 18.6497 226.781 20.6873 225.215 22.3415C223.336 24.4331 220.774 25.2716 219.322 24.34C218.889 24.1109 218.554 23.6241 218.616 23.2002C218.68 22.2995 219.307 22.4902 219.814 22.547C220.49 22.5949 220.953 22.3458 221.765 21.7975C222.25 21.435 222.969 20.7235 222.797 20.6486C222.797 20.6486 220.246 21.178 219.329 21.3393C217.107 21.7389 216.355 20.265 216.31 19.4262C216.292 19.0907 216.354 18.6668 216.424 18.4107ZM5.69971 58.9662C6.67874 57.8762 7.05218 57.5197 7.6553 57.263C8.26142 57.0623 9.26797 57.0083 9.89958 57.2829C10.8153 57.6263 11.1264 58.1985 10.8518 58.8301C10.696 59.0628 10.6696 59.0922 11.0216 59.3818C11.6387 59.9095 11.513 60.7014 11.561 61.5961C11.7693 63.9122 11.8537 64.4405 12.834 67.5565C13.0907 68.1596 13.197 68.5745 13.1222 68.7467C13.0638 69.2265 11.9808 69.4248 11.158 69.2446C10.5868 69.0509 10.3511 68.8393 9.72296 67.5831C9.71396 67.4153 9.62109 67.2521 9.53721 67.2566C9.53721 67.2566 9.4109 67.5157 9.25964 67.8323C8.91169 68.6641 8.3061 69.3976 7.70298 69.6543C6.8058 70.1791 5.42227 70.0009 4.85108 69.8072C3.93087 69.3799 3.11051 68.7229 3.03157 67.7737C2.65431 62.8308 5.1705 59.5554 5.69971 58.9662ZM6.03023 67.2203C8.72328 65.6739 8.21169 60.3176 8.21169 60.3176C8.21169 60.3176 7.96905 60.4989 7.76186 60.8184C7.23566 61.4635 6.61914 63.0388 6.36706 64.0898C6.30417 64.4858 6.15741 64.8862 6.07803 64.9746C5.93126 65.375 5.86697 67.3132 6.03023 67.2203ZM17.4473 57.8034C17.972 57.1303 18.5911 56.6485 19.0604 56.5111C21.3426 56.1925 22.6523 57.6084 23.4289 60.0623C23.6651 60.8067 24.6565 66.2214 24.8088 66.9703C24.8388 67.5295 24.8698 67.5839 24.6846 67.7901C23.0994 69.0809 21.9075 67.7708 21.6968 67.5017C21.3977 67.1532 21.2629 66.2071 20.8498 63.7337C20.3469 61.1529 20.5051 60.4434 19.9808 60.079C18.1445 60.3457 18.1353 65.9262 17.8603 67.5953C17.6452 68.8126 17.426 68.9085 16.7934 69.1387C15.2896 69.3315 14.9755 68.7034 14.7648 68.4343C14.5541 68.1652 14.0473 58.7148 14.2235 58.3408C14.4686 57.6827 15.949 57.5753 16.7444 58.2897C16.9461 58.3911 16.9181 58.3926 17.4473 57.8034ZM31.2235 50.1106C31.2115 49.8869 31.4292 49.7631 31.6469 49.6392C32.1602 49.2752 33.2701 49.5802 33.7519 50.1993C34.2807 50.6476 34.4847 56.0204 34.5837 57.8657C34.7816 61.5564 34.952 62.6409 35.8808 65.8437C36.1855 67.3416 36.1915 67.4534 35.7681 67.9247C35.5624 68.2723 34.3042 68.3397 33.8389 68.0282C33.6092 67.9284 33.6092 67.9284 33.3915 68.0522C32.9682 68.5236 31.1853 69.2641 30.2007 69.2047C27.1915 69.5624 26.6572 67.9647 26.2932 67.4515C25.7443 64.5367 27.0033 62.3942 27.4941 61.6108C28.2904 60.2502 29.8311 58.6534 30.7812 58.0697C31.2165 57.822 31.218 57.85 31.1535 56.6477C31.0546 54.8023 31.1237 50.3402 31.2235 50.1106ZM32.2435 64.9452C32.0912 64.1963 31.7685 62.363 31.74 61.8317C31.722 61.4962 31.6216 61.1932 31.6216 61.1932C31.5098 61.1991 31.2966 61.4069 30.9791 61.7604C29.752 63.4525 28.8634 66.7528 29.4067 66.948C29.7482 67.0419 30.7088 66.6539 31.541 65.9643C32.2615 65.2808 32.3733 65.2748 32.2435 64.9452ZM47.3305 47.0315C47.3095 46.6401 47.4638 46.3795 47.7079 46.2262C48.3715 46.0504 49.427 46.3863 49.7146 47.0439C49.9947 47.5616 50.183 48.9816 50.3015 51.1904C50.42 53.3992 50.4215 53.4272 51.3366 53.2379C53.8365 52.7954 53.8806 54.139 53.7617 54.5379C53.6429 54.9368 53.2575 55.0697 51.8675 55.8172C50.7142 56.2716 50.7142 56.2716 50.9242 60.186C51.0366 62.2829 51.1416 64.2401 51.1551 64.4918C51.3309 65.1553 51.3294 65.1274 51.8531 64.9591C53.0274 64.8961 53.8463 65.5251 53.8883 66.308C53.9573 67.5942 52.0196 68.0626 50.0369 67.6923C47.82 67.1382 47.8154 65.4841 47.6115 61.6815C47.2678 57.8865 47.2957 57.885 46.6247 57.921C45.7095 58.1103 45.0529 57.8931 44.6255 57.2431C44.3604 57.0049 44.3529 56.8651 44.591 56.6C44.7098 56.201 45.576 55.6218 46.7219 55.0276C47.3854 54.8518 47.3589 54.8813 47.2675 53.1757C47.1415 50.8271 47.1209 47.8279 47.3305 47.0315ZM54.7633 59.6155C55.3424 57.3413 56.7108 55.6696 58.4378 54.932C62.3995 53.5138 63.2539 55.8514 63.4742 56.821C63.2303 61.6851 59.0399 62.4986 58.2335 62.626C57.8701 62.6455 57.898 62.644 57.9999 62.975C58.6351 65.4085 61.7471 64.8771 62.1151 64.9415C62.576 65.1691 63.1047 65.6174 63.1182 65.8691C63.1752 66.9315 60.4531 67.414 58.3671 66.6847C54.3807 65.5525 54.5362 60.6091 54.7633 59.6155ZM59.4661 58.9427C60.0467 58.2667 60.3742 57.5761 60.3472 57.0728C60.4086 56.6489 60.3202 56.5696 60.0541 56.8362C60.0541 56.8362 59.8953 57.013 59.7321 57.1058C59.3821 57.377 58.6517 58.3975 58.3946 58.8319C58.2493 59.2603 57.9383 60.2584 57.9383 60.2584C58.0267 60.3378 59.0457 59.47 59.4661 58.9427ZM64.2884 60.6189C64.9802 57.8338 67.794 54.8789 70.6569 53.8841C71.3189 53.6804 72.3519 53.5969 72.8422 53.851C74.777 54.8969 73.7965 55.959 72.697 55.8497C71.9921 55.7753 71.723 55.9861 70.6685 56.7156C69.5626 57.532 68.7718 58.4717 67.9241 59.9191C67.5362 60.5288 67.5527 60.8364 67.409 61.2927C69.7376 60.2705 71.18 60.5016 71.6878 60.5585C73.9471 60.8579 74.6452 62.8955 73.0795 64.5497C71.2008 66.6413 68.6381 67.4798 67.1861 66.5482C66.7532 66.319 66.4187 65.8323 66.48 65.4084C66.5439 64.5076 67.171 64.6983 67.6788 64.7552C68.3543 64.8031 68.8176 64.5539 69.6294 64.0057C70.1147 63.6432 70.8336 62.9317 70.6614 62.8568C70.6614 62.8568 68.1101 63.3862 67.1934 63.5475C64.9716 63.947 64.2196 62.4732 64.1746 61.6344C64.1566 61.2989 64.218 60.875 64.2884 60.6189ZM77.7204 45.4017C77.6994 45.0102 77.8537 44.7496 78.0978 44.5963C78.7614 44.4205 79.8169 44.7565 80.1045 45.414C80.3846 45.9317 80.573 47.3517 80.6914 49.5605C80.8099 51.7694 80.8114 51.7973 81.7266 51.608C84.2265 51.1655 84.2705 52.5091 84.1517 52.908C84.0329 53.307 83.6474 53.4398 82.2575 54.1873C81.1041 54.6417 81.1041 54.6417 81.3141 58.5561C81.4265 60.6531 81.5315 62.6103 81.545 62.8619C81.7208 63.5254 81.7193 63.4975 82.243 63.3292C83.4173 63.2662 84.2362 63.8953 84.2782 64.6781C84.3472 65.9643 82.4095 66.4327 80.4268 66.0624C78.2099 65.5083 78.2054 63.8542 78.0014 60.0516C77.6577 56.2566 77.6856 56.2551 77.0146 56.2911C76.0994 56.4804 75.4429 56.2632 75.0154 55.6132C74.7503 55.375 74.7428 55.2353 74.9809 54.9701C75.0997 54.5712 75.966 53.992 77.1118 53.3977C77.7753 53.222 77.7489 53.2514 77.6574 51.5459C77.5314 49.1972 77.5108 46.198 77.7204 45.4017ZM96.4809 54.518C97.2387 52.9632 97.7429 52.4315 98.4843 52.1393C102.237 52.0502 103.298 53.5355 104.085 55.6525C104.384 56.5337 104.474 58.2113 104.281 59.3152C103.424 63.7354 99.8626 64.7676 98.2554 64.6015C95.1239 64.7694 94.956 61.6379 94.9874 60.6548C94.9513 58.4135 95.4879 56.3939 96.4809 54.518ZM101.002 58.8181C101.346 57.3976 101.016 55.4245 100.3 54.6217C100.212 54.5423 100.044 54.5513 100.044 54.5513C99.6244 54.5738 98.4642 56.9914 98.1422 58.8313C97.8817 60.2472 98.2118 62.2204 98.5429 62.1185C100.613 61.5028 100.725 59.9265 101.002 58.8181ZM105.971 54.4297C106.103 53.2449 106.404 52.0511 106.695 51.727C106.986 51.403 108.249 51.4194 108.779 51.8957C109.103 52.1867 109.124 52.5782 109.044 54.7416C108.959 56.8211 109.218 61.6581 109.408 61.5358C111.569 60.5226 112.081 54.3824 112.193 52.8061C112.267 52.1012 112.424 51.8964 112.917 51.6737C113.801 51.43 114.885 51.7645 115.314 52.4425C115.526 52.7395 115.526 52.7395 115.404 54.1201C114.498 59.1879 115.783 61.1939 116.402 61.7496C117.137 62.3831 116.591 63.1975 115.892 63.235C114.92 63.3993 113.916 62.9765 113.375 62.3045C113.169 62.1192 113.079 62.0119 112.967 62.0179C112.967 62.0179 112.889 62.1342 112.788 62.3359C112.158 63.6596 111.714 64.2722 110.952 64.7057C109.045 65.2285 107.903 64.8411 107.172 64.2915C106.548 63.624 106.327 63.1592 106.057 61.7996C105.772 60.1325 105.758 56.2077 105.971 54.4297ZM119.851 43.1421C119.83 42.7507 119.985 42.49 120.229 42.3367C120.892 42.161 121.948 42.4969 122.235 43.1545C122.516 43.6722 122.704 45.0921 122.822 47.301C122.941 49.5098 122.942 49.5378 123.857 49.3485C126.357 48.906 126.401 50.2495 126.283 50.6485C126.164 51.0474 125.778 51.1802 124.388 51.9277C123.235 52.3822 123.235 52.3822 123.445 56.2965C123.557 58.3935 123.662 60.3507 123.676 60.6023C123.852 61.2659 123.85 61.2379 124.374 61.0696C125.548 61.0067 126.367 61.6357 126.409 62.4186C126.478 63.7047 124.54 64.1732 122.558 63.8028C120.341 63.2488 120.336 61.5946 120.132 57.7921C119.789 53.9971 119.816 53.9956 119.145 54.0315C118.23 54.2208 117.574 54.0037 117.146 53.3536C116.881 53.1155 116.874 52.9757 117.112 52.7106C117.231 52.3116 118.097 51.7324 119.243 51.1382C119.906 50.9624 119.88 50.9919 119.788 49.2863C119.662 46.9377 119.642 43.9385 119.851 43.1421ZM142.483 43.8912C142.477 43.7793 142.668 43.6849 142.774 43.5671C144.379 43.1726 145.055 43.7532 145.257 43.8545C145.587 44.2575 145.597 44.4532 145.298 48.2827C144.886 54.1932 144.695 56.3906 144.553 59.4827C144.445 61.1428 144.41 62.5748 144.41 62.5748C143.955 63.4965 142.486 63.2948 141.854 63.0203C141.424 62.847 141.307 62.7412 140.352 60.1006C139.872 59.0047 136.49 49.7926 135.77 47.8684C135.413 46.9622 134.928 45.7544 135.017 45.3291C135.128 44.7903 135.593 44.5691 136.019 44.6585C137.059 44.7148 137.377 44.894 137.835 45.5985C138.588 46.5676 141.531 54.9059 141.525 54.7941C141.637 54.7881 142.381 44.0929 142.483 43.8912ZM147.933 49.964C147.925 49.2915 148.053 49.0603 148.132 48.9719C148.481 48.6728 149.433 48.6498 149.922 48.8759C151.534 49.6587 150.76 51.4387 150.232 51.5231C147.832 52.2687 147.932 50.4688 147.933 49.964ZM148.09 54.9748C148.022 53.7166 148.192 53.2308 148.519 53.045C148.845 52.8593 149.887 52.9436 150.319 53.1448C150.928 53.5327 151.052 53.7504 151.354 56.7625C151.441 57.3467 151.631 58.7946 151.828 59.8496C152.025 60.9046 152.288 61.1147 152.142 62.0479C152 63.065 150.136 62.8005 149.794 62.7066C149.189 62.4026 148.856 61.9438 148.657 61.3656C148.332 60.0091 148.071 56.7143 148.09 54.9748ZM152.892 55.8669C153.583 53.0819 156.397 50.1269 159.26 49.1322C159.922 48.9284 160.955 48.845 161.445 49.0991C163.38 50.145 162.4 51.207 161.3 51.0977C160.595 51.0234 160.326 51.2341 159.272 51.9636C158.166 52.78 157.375 53.7197 156.527 55.1672C156.139 55.7768 156.156 56.0844 156.012 56.5408C158.341 55.5186 159.783 55.7497 160.291 55.8065C162.55 56.106 163.248 58.1435 161.683 59.7977C159.804 61.8894 157.241 62.7278 155.789 61.7962C155.356 61.5671 155.022 61.0803 155.083 60.6564C155.147 59.7557 155.774 59.9464 156.282 60.0033C156.957 60.0512 157.421 59.802 158.233 59.2537C158.718 58.8912 159.437 58.1797 159.265 58.1048C159.265 58.1048 156.713 58.6342 155.797 58.7955C153.575 59.1951 152.823 57.7213 152.778 56.8825C152.76 56.5469 152.821 56.123 152.892 55.8669ZM164.008 48.7093C163.656 44.2417 163.688 42.7539 164.046 42.6225C164.642 42.2261 165.913 42.4102 166.31 43.0058C166.581 43.3558 166.608 43.8591 167.059 47.5643C167.212 50.4162 167.98 55.8428 168.663 59.171C168.862 60.7867 168.923 61.4003 168.425 61.5391C167.69 61.9431 166.558 61.7514 166.022 61.1633C165.757 60.9252 165.633 60.7075 165.48 59.9586C164.699 56.888 164.281 53.798 164.008 48.7093ZM170.07 50.2629C170.15 49.6697 170.409 49.2633 170.621 49.0276C171.07 48.5268 172.822 48.7694 173.223 49.4489C173.229 49.5607 173.366 50.03 173.317 51.2103C173.312 53.2015 173.277 56.7364 174.094 56.8048C175.841 56.9634 176.471 50.929 176.433 50.23C176.384 49.3074 176.812 48.9199 177.874 48.8629C179.048 48.7999 179.925 49.4539 180.094 50.5104C180.776 54.3434 181.386 59.442 181.386 61.545C181.633 66.6632 178.089 68.0309 175.868 67.9257C174.101 67.9083 173.154 67.5105 172.753 66.831C172.492 66.144 173.092 65.8314 174.927 65.5367C177.456 65.1206 177.289 64.0921 177.603 63.1499C177.795 62.5508 177.664 58.0153 177.552 58.0213C177.44 58.0273 177.545 57.8815 177.34 58.257C175.701 61.1489 173.241 60.2434 172.634 59.9114C170.969 59.1875 170.148 57.465 169.935 53.4948C169.822 51.3978 169.756 51.205 170.07 50.2629ZM192.846 42.9286C194.116 41.5145 194.847 41.0267 196.066 40.737C196.283 40.6132 196.842 40.5832 197.29 40.5592C199.057 40.5766 200.328 41.2655 200.742 42.7014C201.125 43.5781 201.145 44.4743 200.957 45.1574C200.857 46.4246 198.579 46.2944 198.083 45.4237C197.736 45.218 197.736 45.218 197.788 44.0936C197.852 43.1929 197.84 42.9692 197.616 42.9812C197.392 42.9932 196.568 43.8226 195.827 44.6474C194.072 46.9567 193.591 48.4406 194.304 49.1875C194.427 49.4052 195.205 49.7841 196.241 50.2893C198.97 51.4889 199.905 52.1958 200.766 53.6078C202.206 57.9889 199.391 59.3456 197.771 59.9933C196.559 60.3948 195.463 60.3414 194.432 59.9481C192.917 59.4124 191.947 57.5297 191.917 56.9705C191.869 56.0758 192.3 55.7442 193.424 55.7961C194.549 55.8479 195.22 56.3447 195.262 57.1276C195.416 57.9044 196.84 57.2673 197.451 56.1129C197.856 55.306 197.822 54.6629 197.333 53.9041C196.855 53.3689 196.391 53.0853 194.123 52.0854C191.512 50.9916 190.681 50.1389 190.369 48.5012C190.068 47.0593 191.173 44.6727 192.846 42.9286ZM204.85 38.5835C204.829 38.192 204.984 37.9314 205.228 37.7781C205.891 37.6023 206.947 37.9383 207.234 38.5958C207.514 39.1135 207.703 40.5335 207.821 42.7423C207.94 44.9511 207.941 44.9791 208.856 44.7898C211.356 44.3473 211.4 45.6909 211.281 46.0898C211.163 46.4887 210.777 46.6216 209.387 47.3691C208.234 47.8235 208.234 47.8235 208.444 51.7379C208.556 53.8349 208.661 55.7921 208.675 56.0437C208.851 56.7072 208.849 56.6793 209.373 56.511C210.547 56.448 211.366 57.077 211.408 57.8599C211.477 59.1461 209.539 59.6145 207.557 59.2442C205.34 58.6901 205.335 57.036 205.131 53.2334C204.787 49.4384 204.815 49.4369 204.144 49.4729C203.229 49.6622 202.573 49.445 202.145 48.795C201.88 48.5568 201.873 48.417 202.111 48.1519C202.23 47.753 203.096 47.1737 204.242 46.5795C204.905 46.4037 204.879 46.4332 204.787 44.7277C204.661 42.379 204.641 39.3798 204.85 38.5835ZM215.453 47.7167C216.432 46.6267 216.805 46.2702 217.409 46.0136C218.015 45.8128 219.021 45.7588 219.653 46.0334C220.569 46.3769 220.88 46.949 220.605 47.5806C220.449 47.8133 220.423 47.8428 220.775 48.1323C221.392 48.66 221.266 49.4519 221.314 50.3466C221.523 52.6628 221.607 53.191 222.587 56.307C222.844 56.9101 222.95 57.325 222.875 57.4973C222.817 57.9771 221.734 58.1754 220.911 57.9952C220.34 57.8015 220.104 57.5898 219.476 56.3336C219.467 56.1659 219.374 56.0026 219.29 56.0071C219.29 56.0071 219.164 56.2663 219.013 56.5828C218.665 57.4146 218.059 58.1481 217.456 58.4048C216.559 58.9296 215.176 58.7514 214.604 58.5577C213.684 58.1304 212.864 57.4734 212.785 56.5243C212.408 51.5814 214.924 48.3059 215.453 47.7167ZM215.783 55.9709C218.477 54.4244 217.965 49.0681 217.965 49.0681C217.965 49.0681 217.722 49.2494 217.515 49.569C216.989 50.2141 216.372 51.7893 216.12 52.8404C216.057 53.2363 215.911 53.6367 215.831 53.7251C215.685 54.1255 215.62 56.0638 215.783 55.9709ZM224.755 37.5159C224.734 37.1245 224.888 36.8638 225.133 36.7105C225.796 36.5348 226.852 36.8707 227.139 37.5283C227.419 38.046 227.608 39.4659 227.726 41.6748C227.845 43.8836 227.846 43.9116 228.761 43.7223C231.261 43.2798 231.305 44.6233 231.186 45.0223C231.068 45.4212 230.682 45.554 229.292 46.3015C228.139 46.756 228.139 46.756 228.349 50.6703C228.461 52.7673 228.566 54.7245 228.58 54.9762C228.756 55.6397 228.754 55.6117 229.278 55.4434C230.452 55.3805 231.271 56.0095 231.313 56.7924C231.382 58.0785 229.444 58.547 227.462 58.1766C225.245 57.6226 225.24 55.9684 225.036 52.1659C224.692 48.3709 224.72 48.3694 224.049 48.4053C223.134 48.5946 222.478 48.3775 222.05 47.7274C221.785 47.4893 221.778 47.3495 222.016 47.0844C222.135 46.6854 223.001 46.1062 224.147 45.512C224.81 45.3362 224.784 45.3657 224.692 43.6601C224.566 41.3115 224.546 38.3123 224.755 37.5159ZM232.188 50.0999C232.767 47.8256 234.136 46.154 235.862 45.4164C239.824 43.9982 240.679 46.3358 240.899 47.3054C240.655 52.1694 236.465 52.983 235.658 53.1104C235.295 53.1299 235.323 53.1284 235.425 53.4594C236.06 55.8929 239.172 55.3614 239.54 55.4258C240.001 55.6535 240.529 56.1018 240.543 56.3534C240.6 57.4159 237.878 57.8984 235.792 57.1691C231.805 56.0369 231.961 51.0935 232.188 50.0999ZM236.891 49.4271C237.471 48.751 237.799 48.0605 237.772 47.5572C237.833 47.1333 237.745 47.0539 237.479 47.3206C237.479 47.3206 237.32 47.4973 237.157 47.5902C236.807 47.8613 236.076 48.8819 235.819 49.3163C235.674 49.7447 235.363 50.7428 235.363 50.7428C235.451 50.8222 236.47 49.9544 236.891 49.4271Z" fill="white"/>
<path d="M121 107L121 159C121 213.5 140.07 238.517 167.07 255.868" stroke="white" stroke-width="5" stroke-linecap="round" stroke-linejoin="round"/>
<path d="M167.042 257.711C167.556 252.948 166.933 248.283 166.877 243.516C166.86 242.026 166.835 240.485 166.996 239" stroke="white" stroke-width="5" stroke-linecap="round" stroke-linejoin="round"/>
<path d="M166.5 258C163.847 257.315 161.277 256.389 158.732 255.433C156.929 254.757 155.397 254.301 153.5 254C150.415 253.511 149.605 253.335 146.5 253" stroke="white" stroke-width="5" stroke-linecap="round" stroke-linejoin="round"/>
</svg>
