<svg width="40" height="40" viewBox="0 0 40 40" fill="none" xmlns="http://www.w3.org/2000/svg">
<path d="M19.9999 31.6666C26.4432 31.6666 31.6666 26.4432 31.6666 19.9999C31.6666 13.5566 26.4432 8.33325 19.9999 8.33325C13.5566 8.33325 8.33325 13.5566 8.33325 19.9999C8.33325 26.4432 13.5566 31.6666 19.9999 31.6666Z" stroke="#F0586E" stroke-width="3" stroke-linecap="round" stroke-linejoin="round"/>
<path d="M20 15V20L22.5 22.5" stroke="#F0586E" stroke-width="3" stroke-linecap="round" stroke-linejoin="round"/>
<path d="M27.5166 28.9168L26.9332 35.3001C26.8581 36.1312 26.4741 36.9039 25.8569 37.4655C25.2397 38.0271 24.4343 38.3368 23.5999 38.3334H16.3832C15.5488 38.3368 14.7434 38.0271 14.1262 37.4655C13.5091 36.9039 13.125 36.1312 13.0499 35.3001L12.4666 28.9168M12.4832 11.0834L13.0666 4.70011C13.1414 3.8719 13.5231 3.10158 14.1367 2.54036C14.7504 1.97914 15.5516 1.66756 16.3832 1.66678H23.6332C24.4677 1.66339 25.273 1.97311 25.8902 2.53473C26.5074 3.09636 26.8915 3.86904 26.9666 4.70011L27.5499 11.0834" stroke="#F0586E" stroke-width="3" stroke-linecap="round" stroke-linejoin="round"/>
</svg>
