<svg width="40" height="40" viewBox="0 0 40 40" fill="none" xmlns="http://www.w3.org/2000/svg">
<path d="M38.3333 6.66669V16.6667H28.3333" stroke="#F48B68" stroke-width="3" stroke-linecap="round" stroke-linejoin="round"/>
<path d="M1.66675 33.3333V23.3333H11.6667" stroke="#F48B68" stroke-width="3" stroke-linecap="round" stroke-linejoin="round"/>
<path d="M5.85008 15C6.69536 12.6113 8.13197 10.4756 10.0259 8.79233C11.9197 7.10902 14.2092 5.93291 16.6806 5.37373C19.1519 4.81455 21.7247 4.89053 24.1587 5.59459C26.5928 6.29864 28.8088 7.60782 30.6001 9.39996L38.3334 16.6666M1.66675 23.3333L9.40008 30.6C11.1913 32.3921 13.4074 33.7013 15.8414 34.4053C18.2755 35.1094 20.8482 35.1854 23.3196 34.6262C25.791 34.067 28.0804 32.8909 29.9743 31.2076C31.8682 29.5243 33.3048 27.3887 34.1501 25" stroke="#F48B68" stroke-width="3" stroke-linecap="round" stroke-linejoin="round"/>
</svg>
