<svg width="208" height="234" viewBox="0 0 208 234" fill="none" xmlns="http://www.w3.org/2000/svg">
<path d="M10.3314 150.995C10.3425 150.884 10.5597 150.68 10.6823 150.58C11.05 150.279 11.05 150.279 11.819 150.468C12.9335 150.579 13.7221 151.136 14.5832 152.095C17.5987 155.434 17.8088 159.817 17.5308 162.04C16.8774 167.181 14.3482 169.123 12.4761 169.837C10.3003 170.492 8.56998 169.785 7.62253 169.128C4.40408 167.259 5.51367 159.519 6.03426 157.967C7.635 153.202 8.96095 152.322 9.81888 151.619C10.064 151.419 10.3202 151.107 10.3314 150.995ZM13.2357 155.449C13.0795 154.758 12.7004 154.045 12.4997 153.8C12.3101 153.444 12.2098 153.321 12.0984 153.31C8.34055 155.721 8.0557 163.656 9.1179 166.266C9.36603 166.882 9.77855 167.542 9.89 167.553C10.4361 167.72 11.7704 166.756 12.5391 165.819C14.5109 162.977 14.7746 159.205 13.2357 155.449ZM19.699 159.611C20.2475 158.062 20.434 157.602 20.5566 157.502C21.2502 157.037 23.0753 157.922 23.0086 158.591C22.9975 158.702 23.9336 158.627 24.8141 158.827C27.0598 159.164 28.0129 160.328 28.6068 161.991C28.8049 162.827 28.769 164.315 28.2984 165.084C27.3294 167.182 25.2153 169.194 22.2956 169.691C21.6242 169.933 21.7412 169.889 21.4853 171.608C21.2017 173.606 21.3834 176.015 21.3417 176.433C21.2473 177.381 21.0244 177.64 19.9935 177.537C19.0909 177.56 18.3469 177.12 18.0096 176.551C17.7838 175.994 17.8505 175.607 18.1142 171.834C18.2615 170.358 18.3084 168.758 18.2275 168.441C18.1578 168.012 18.1661 167.928 18.3081 167.633C18.4307 167.533 18.6032 166.931 18.656 166.401C18.7755 165.203 19.507 160.408 19.699 159.611ZM23.3757 166.478C25.3172 164.786 25.7793 163.538 25.687 162.206C25.6062 161.889 25.3079 161.493 24.5557 161.418C23.3019 161.293 22.87 161.109 22.7169 161.516C22.7058 161.628 22.08 165.645 22.0494 165.952C21.8574 166.749 22.5429 167.211 23.3757 166.478ZM30.4323 163.777C31.3511 161.618 32.9583 160.174 34.7775 159.708C38.9091 158.91 39.3973 161.351 39.4672 162.343C38.485 167.113 34.2195 167.278 33.4032 167.281C33.041 167.245 33.0689 167.248 33.1191 167.59C33.3761 170.092 36.5327 170.041 36.8866 170.161C37.3074 170.456 37.7617 170.98 37.7367 171.231C37.6311 172.289 34.8673 172.351 32.9167 171.313C29.1494 169.586 30.0564 164.724 30.4323 163.777ZM35.1826 163.829C35.8595 163.249 36.2884 162.616 36.3384 162.115C36.4636 161.705 36.3884 161.613 36.0848 161.836C36.0848 161.836 35.9009 161.987 35.7254 162.054C35.3382 162.268 34.4608 163.166 34.1405 163.556C33.9317 163.957 33.4722 164.896 33.4722 164.896C33.5475 164.988 34.6868 164.286 35.1826 163.829ZM44.4366 161.347C45.0577 160.762 45.743 160.38 46.2277 160.315C48.5319 160.348 49.6105 161.947 50.004 164.491C50.124 165.263 50.2787 170.765 50.3152 171.528C50.2596 172.086 50.2819 172.144 50.0674 172.32C48.3041 173.354 47.3258 171.877 47.1585 171.579C46.916 171.189 46.9269 170.234 46.8956 167.726C46.7918 165.099 47.0563 164.422 46.5937 163.982C44.7382 163.966 43.8787 169.48 43.3526 171.087C42.9545 172.258 42.7232 172.319 42.063 172.45C40.5473 172.411 40.3326 171.743 40.1654 171.445C39.9981 171.147 40.9373 161.729 41.1685 161.387C41.511 160.774 42.9904 160.893 43.6677 161.72C43.8516 161.851 43.8237 161.848 44.4366 161.347ZM63.803 163.813C64.9367 162.885 65.3601 162.589 65.9953 162.428C66.6249 162.322 67.6279 162.422 68.2103 162.789C69.063 163.268 69.2833 163.881 68.9157 164.463C68.7263 164.67 68.6956 164.695 68.9994 165.035C69.5289 165.65 69.2839 166.414 69.195 167.305C69.048 169.626 69.0509 170.161 69.5449 173.39C69.7067 174.025 69.7486 174.451 69.6483 174.61C69.5175 175.076 68.417 175.106 67.6312 174.803C67.0962 174.525 66.8956 174.279 66.4662 172.942C66.4828 172.775 66.4159 172.6 66.3323 172.591C66.3323 172.591 66.168 172.828 65.9703 173.118C65.4996 173.887 64.7893 174.52 64.1541 174.681C63.1875 175.063 61.8473 174.676 61.3122 174.398C60.4679 173.835 59.7572 173.061 59.8239 172.111C60.2042 167.168 63.1902 164.315 63.803 163.813ZM62.8718 172.021C65.7691 170.903 66.0797 165.531 66.0797 165.531C66.0797 165.531 65.8123 165.673 65.5588 165.958C64.9404 166.515 64.0911 167.978 63.6818 168.978C63.5593 169.36 63.3532 169.733 63.2613 169.809C63.0552 170.182 62.6963 172.088 62.8718 172.021ZM83.7532 165.268C84.3744 164.683 85.0597 164.301 85.5444 164.237C87.8485 164.269 88.9272 165.868 89.3207 168.412C89.4407 169.184 89.5954 174.686 89.6318 175.45C89.5763 176.007 89.5986 176.065 89.3841 176.241C87.6208 177.275 86.6424 175.799 86.4752 175.5C86.2327 175.111 86.2436 174.155 86.2123 171.647C86.1085 169.02 86.373 168.343 85.9104 167.903C84.0548 167.887 83.1954 173.401 82.6692 175.008C82.2711 176.179 82.0399 176.24 81.3796 176.371C79.864 176.333 79.6493 175.664 79.482 175.366C79.3148 175.068 80.254 165.65 80.4851 165.308C80.8277 164.695 82.3071 164.814 82.9844 165.641C83.1683 165.772 83.1404 165.77 83.7532 165.268ZM91.7064 169.888C92.6253 167.728 94.2325 166.285 96.0517 165.819C100.183 165.021 100.671 167.462 100.741 168.453C99.7592 173.224 95.4937 173.389 94.6774 173.392C94.3152 173.356 94.343 173.359 94.3933 173.701C94.6503 176.203 97.8069 176.152 98.1608 176.272C98.5815 176.567 99.0358 177.091 99.0108 177.342C98.9052 178.4 96.1414 178.462 94.1909 177.424C90.4236 175.697 91.3306 170.835 91.7064 169.888ZM96.4568 169.94C97.1336 169.36 97.5625 168.727 97.6125 168.226C97.7378 167.816 97.6626 167.724 97.3589 167.947C97.3589 167.947 97.1751 168.098 96.9996 168.165C96.6124 168.379 95.735 169.277 95.4147 169.667C95.2058 170.068 94.7464 171.007 94.7464 171.007C94.8216 171.099 95.961 170.397 96.4568 169.94ZM111.141 167.183C111.157 167.016 111.369 166.868 111.461 166.793C111.943 166.475 112.963 166.69 113.551 167.001C114.128 167.425 114.197 167.572 114.242 168.815C114.207 172.835 113.531 177.636 113.32 178.065C112.76 179.163 111.843 179.606 110.551 179.308C109.517 178.952 108.567 178.041 107.842 176.562C107.465 175.821 107.465 175.821 107.229 176.501C106.285 179.474 104.984 179.541 104.455 179.488C103.22 179.45 102.476 179.01 102.125 178.018C101.824 177.369 101.654 175.692 101.67 173.836C101.694 171.897 102.153 168.144 102.473 167.472C103.799 166.31 104.507 167.675 104.741 167.868C104.883 168.135 104.864 168.33 104.834 169.481C104.717 171.495 104.13 175.685 105.099 173.869C105.506 172.896 106.252 170.494 106.472 169.982C106.948 168.875 107.048 168.717 107.912 168.803C109.698 168.953 109.762 169.719 109.751 170.675C109.735 172.53 109.961 174.494 110.329 175.319C110.472 175.586 110.499 175.589 110.708 173.499C110.83 172.274 111.002 170.546 111.033 169.395C111.055 168.328 111.124 167.35 111.141 167.183ZM127.717 160.451C127.756 160.061 127.948 159.827 128.213 159.713C128.895 159.64 129.887 160.133 130.071 160.826C130.269 161.381 130.239 162.813 130.02 165.014C129.8 167.215 129.797 167.243 130.731 167.195C133.269 167.139 133.107 168.474 132.929 168.85C132.751 169.226 132.35 169.298 130.862 169.825C129.653 170.099 129.653 170.099 129.264 173.999C129.056 176.089 128.861 178.039 128.836 178.29C128.909 178.973 128.912 178.945 129.455 178.858C130.625 178.975 131.339 179.722 131.261 180.502C131.133 181.783 129.146 181.951 127.243 181.283C125.137 180.397 125.384 178.762 125.762 174.973C126.001 171.17 126.029 171.172 125.36 171.106C124.427 171.153 123.811 170.839 123.488 170.131C123.262 169.855 123.276 169.716 123.551 169.49C123.73 169.114 124.674 168.674 125.897 168.261C126.58 168.188 126.549 168.213 126.718 166.514C126.952 164.173 127.388 161.206 127.717 160.451ZM136.804 171.093C137.938 170.165 138.361 169.87 138.996 169.708C139.626 169.602 140.629 169.702 141.211 170.07C142.064 170.549 142.284 171.161 141.917 171.744C141.727 171.95 141.697 171.975 142.001 172.315C142.53 172.931 142.285 173.694 142.196 174.586C142.049 176.907 142.052 177.441 142.546 180.67C142.708 181.306 142.75 181.732 142.649 181.891C142.519 182.356 141.418 182.387 140.632 182.083C140.097 181.805 139.897 181.56 139.467 180.223C139.484 180.055 139.417 179.88 139.333 179.872C139.333 179.872 139.169 180.109 138.971 180.398C138.501 181.167 137.79 181.8 137.155 181.962C136.189 182.344 134.848 181.957 134.313 181.678C133.469 181.116 132.758 180.341 132.825 179.391C133.205 174.449 136.191 171.595 136.804 171.093ZM135.873 179.301C138.77 178.183 139.081 172.812 139.081 172.812C139.081 172.812 138.813 172.954 138.56 173.238C137.942 173.796 137.092 175.258 136.683 176.259C136.56 176.641 136.354 177.014 136.262 177.089C136.056 177.463 135.697 179.368 135.873 179.301ZM144.842 174.624C145.606 165.837 145.904 164.263 146.352 163.998C146.681 163.806 147.291 163.895 147.902 164.265C148.186 164.518 148.289 164.613 148.37 164.931C148.69 165.947 148.149 171.662 148.065 172.498C148.007 174.208 147.979 174.206 148.573 173.618C151.757 171.6 153.643 173.279 153.956 174.38C154.898 177.625 152.642 180.214 151.926 180.902C150.133 183.087 147.572 183.648 146.725 183.676C145.433 183.66 144.942 183.498 144.455 183.027C144.179 182.69 144.151 182.688 144.842 174.624ZM148.374 180.126C150.265 179.217 150.75 177.465 151.131 175.899C151.162 175.592 151.195 175.258 151.195 175.258C150.777 175.216 148.799 176.707 148 179.357C147.599 180.274 147.925 180.391 148.374 180.126ZM167.196 174.124C168.33 173.196 168.753 172.901 169.389 172.739C170.018 172.633 171.021 172.733 171.604 173.101C172.456 173.58 172.677 174.193 172.309 174.775C172.12 174.981 172.089 175.006 172.393 175.346C172.922 175.962 172.677 176.725 172.588 177.617C172.441 179.938 172.444 180.472 172.938 183.701C173.1 184.337 173.142 184.763 173.042 184.922C172.911 185.387 171.81 185.418 171.025 185.115C170.49 184.836 170.289 184.591 169.859 183.254C169.876 183.087 169.809 182.911 169.726 182.903C169.726 182.903 169.561 183.14 169.364 183.429C168.893 184.198 168.183 184.831 167.547 184.993C166.581 185.375 165.241 184.988 164.706 184.709C163.861 184.147 163.151 183.372 163.217 182.422C163.598 177.48 166.584 174.626 167.196 174.124ZM166.265 182.332C169.162 181.214 169.473 175.843 169.473 175.843C169.473 175.843 169.206 175.985 168.952 176.269C168.334 176.827 167.484 178.289 167.075 179.29C166.953 179.672 166.747 180.045 166.655 180.12C166.449 180.494 166.09 182.399 166.265 182.332ZM178.984 174.765C179.605 174.18 180.29 173.798 180.775 173.734C183.079 173.767 184.158 175.366 184.551 177.909C184.671 178.681 184.826 184.184 184.863 184.947C184.807 185.504 184.829 185.563 184.615 185.738C182.851 186.772 181.873 185.296 181.706 184.998C181.463 184.608 181.474 183.652 181.443 181.145C181.339 178.518 181.604 177.84 181.141 177.4C179.286 177.384 178.426 182.898 177.9 184.506C177.502 185.676 177.271 185.737 176.61 185.869C175.095 185.83 174.88 185.161 174.713 184.863C174.545 184.565 175.485 175.148 175.716 174.805C176.058 174.192 177.538 174.312 178.215 175.139C178.399 175.27 178.371 175.267 178.984 174.765ZM193.772 169.262C193.794 169.039 194.028 168.95 194.262 168.86C194.825 168.579 195.875 169.049 196.257 169.735C196.711 170.258 196.094 175.599 195.911 177.438C195.544 181.116 195.547 182.214 195.977 185.521C196.05 187.048 196.039 187.159 195.548 187.56C195.292 187.872 194.038 187.747 193.626 187.369C193.414 187.235 193.414 187.235 193.18 187.324C192.69 187.725 190.815 188.186 189.851 187.977C186.822 187.872 186.538 186.211 186.256 185.649C186.158 182.684 187.729 180.759 188.333 180.059C189.327 178.836 191.094 177.492 192.121 177.06C192.589 176.882 192.587 176.91 192.706 175.712C192.89 173.873 193.638 169.473 193.772 169.262ZM192.519 184.078C192.483 183.315 192.443 181.454 192.496 180.925C192.529 180.59 192.476 180.275 192.476 180.275C192.365 180.264 192.122 180.437 191.755 180.738C190.284 182.224 188.903 185.35 189.41 185.626C189.733 185.77 190.742 185.533 191.669 184.979C192.486 184.413 192.597 184.424 192.519 184.078ZM15.518 197.978C16.6262 195.331 19.8574 192.839 22.8384 192.292C23.5237 192.192 24.5574 192.267 25.0032 192.592C26.7561 193.921 25.6251 194.821 24.5552 194.546C23.8698 194.365 23.5717 194.532 22.4184 195.092C21.201 195.731 20.2763 196.539 19.2179 197.84C18.7416 198.384 18.7111 198.69 18.4994 199.119C20.9566 198.464 22.347 198.912 22.8402 199.046C25.0274 199.686 25.4069 201.806 23.6074 203.202C21.432 204.983 18.7714 205.421 17.4783 204.279C17.0854 203.987 16.8289 203.455 16.9542 203.045C17.1546 202.165 17.7453 202.449 18.2385 202.582C18.8988 202.733 19.3947 202.557 20.2806 202.139C20.8154 201.855 21.6344 201.261 21.4755 201.161C21.4755 201.161 18.8734 201.295 17.9428 201.315C15.6861 201.371 15.1674 199.8 15.2508 198.964C15.2841 198.63 15.4094 198.22 15.518 197.978ZM27.2622 197.63C28.1811 195.47 29.7883 194.026 31.6075 193.561C35.7391 192.763 36.2273 195.203 36.2972 196.195C35.315 200.965 31.0495 201.131 30.2332 201.134C29.871 201.098 29.8988 201.1 29.9491 201.443C30.2061 203.945 33.3627 203.894 33.7166 204.014C34.1373 204.309 34.5916 204.832 34.5666 205.083C34.461 206.142 31.6972 206.204 29.7467 205.165C25.9794 203.439 26.8864 198.577 27.2622 197.63ZM32.0126 197.681C32.6894 197.102 33.1183 196.469 33.1683 195.967C33.2936 195.558 33.2184 195.466 32.9147 195.689C32.9147 195.689 32.7309 195.839 32.5554 195.906C32.1682 196.121 31.2908 197.018 30.9705 197.408C30.7616 197.81 30.3022 198.749 30.3022 198.749C30.3774 198.841 31.5168 198.138 32.0126 197.681ZM37.6288 198.663C38.5476 196.504 40.1548 195.06 41.974 194.595C46.1056 193.797 46.5938 196.237 46.6637 197.229C45.6815 201.999 41.416 202.165 40.5997 202.168C40.2375 202.131 40.2654 202.134 40.3156 202.477C40.5726 204.979 43.7292 204.928 44.0831 205.047C44.5039 205.343 44.9582 205.866 44.9332 206.117C44.8276 207.176 42.0638 207.238 40.1132 206.199C36.3459 204.473 37.2529 199.611 37.6288 198.663ZM42.3791 198.715C43.056 198.135 43.4849 197.503 43.5349 197.001C43.6602 196.592 43.5849 196.5 43.2813 196.723C43.2813 196.723 43.0974 196.873 42.9219 196.94C42.5347 197.155 41.6573 198.052 41.337 198.442C41.1282 198.844 40.6687 199.783 40.6687 199.783C40.744 199.875 41.8833 199.172 42.3791 198.715ZM56.6948 197.385C56.8646 196.811 57.1822 196.449 57.4273 196.248C57.9482 195.822 59.6423 196.328 59.935 197.061C59.9239 197.173 59.9881 197.657 59.7599 198.816C59.4512 200.783 58.8782 204.272 59.6751 204.464C61.3775 204.887 62.9194 199.019 62.9889 198.322C63.0806 197.403 63.5625 197.085 64.6213 197.191C65.7915 197.308 66.5578 198.087 66.5637 199.157C66.6539 203.049 66.4797 208.182 66.1599 210.26C65.6235 215.356 61.9127 216.168 59.7338 215.725C57.9896 215.439 57.1146 214.901 56.8219 214.169C56.6685 213.45 57.3092 213.232 59.1676 213.221C61.7308 213.195 61.7221 212.153 62.176 211.27C62.4573 210.707 63.0189 206.204 62.9074 206.193C62.796 206.182 62.9213 206.054 62.6623 206.394C60.6013 209.002 58.308 207.732 57.759 207.312C56.2236 206.343 55.6742 204.515 56.0688 200.559C56.2772 198.469 56.2409 198.268 56.6948 197.385ZM70.5209 199.074C71.5068 197.652 72.0862 197.204 72.8635 197.028C76.5859 197.512 77.4082 199.141 77.8629 201.353C78.0248 202.27 77.8581 203.942 77.4989 205.003C75.9789 209.241 72.3013 209.719 70.7382 209.31C67.6177 208.998 67.9289 205.878 68.1097 204.911C68.4156 202.691 69.2537 200.776 70.5209 199.074ZM74.3337 204.012C74.8905 202.661 74.8649 200.661 74.2796 199.758C74.2043 199.666 74.0372 199.649 74.0372 199.649C73.6192 199.608 72.1042 201.82 71.5056 203.59C71.0324 204.949 71.058 206.95 71.4007 206.9C73.5403 206.606 73.8909 205.066 74.3337 204.012ZM79.9133 200.432C80.225 199.282 80.704 198.148 81.041 197.872C81.378 197.596 82.6235 197.804 83.075 198.356C83.3509 198.693 83.312 199.083 82.903 201.209C82.5024 203.251 82.0216 208.071 82.2278 207.979C84.5178 207.307 85.9594 201.317 86.31 199.776C86.4909 199.091 86.6776 198.912 87.1985 198.767C88.1096 198.661 89.1294 199.157 89.45 199.892C89.6145 200.218 89.6145 200.218 89.2833 201.564C87.6157 206.434 88.5803 208.613 89.107 209.256C89.7369 209.994 89.074 210.716 88.3774 210.647C87.3912 210.661 86.4632 210.09 86.0312 209.343C85.8556 209.129 85.7831 209.009 85.6717 208.998C85.6717 208.998 85.577 209.101 85.4461 209.285C84.6217 210.497 84.0897 211.035 83.2707 211.347C81.3065 211.574 80.2365 211.017 79.5983 210.362C79.0827 209.607 78.9349 209.114 78.876 207.729C78.8477 206.038 79.4318 202.157 79.9133 200.432ZM94.5745 201.163C95.176 200.21 96.2011 199.524 96.9867 199.265C97.5885 199.156 98.3435 199.203 98.9092 199.457C100.743 200.259 100.512 201.164 100.311 201.482C100.027 201.791 99.5952 201.889 99.0185 201.747C97.8537 201.293 97.4277 202.179 96.8595 202.798C95.9655 204.144 95.7403 205.838 94.9723 209.307C94.797 210.218 94.5492 211.009 94.5409 211.093C94.3404 211.41 92.2204 212.353 91.671 210.244C91.6041 210.068 91.5492 202.718 91.6325 201.883C91.6823 200.537 91.713 200.512 91.8968 200.361C92.2562 200.144 93.0892 200.255 93.5574 200.639C93.8751 200.84 93.9531 200.904 94.0869 201.255C94.2041 201.773 94.1734 201.798 94.5745 201.163ZM113.43 202.34C114.288 201.638 115.199 201.25 115.999 201.133C118.44 201.207 119.273 202.444 119.309 202.926C119.457 203.419 119.315 203.996 119.017 204.163C118.719 204.331 117.827 204.242 117.382 203.916C117.111 203.804 116.899 203.671 116.816 203.662C116.621 203.643 115.652 204.616 114.989 205.337C114.103 206.318 113.404 207.402 112.989 208.74C112.624 209.576 112.488 210.941 112.644 211.35C113.394 212.016 114.773 211.45 115.592 211.138C116.01 210.898 116.837 211.065 117.403 211.319C118.59 212.112 118.326 213.071 116.883 213.715C114.334 214.727 111.185 214.131 109.705 212.324C108.379 210.39 109.734 206.952 110.912 205.015C111.698 203.912 112.369 203.106 113.43 202.34ZM121.39 197.478C121.641 196.096 121.655 195.957 122.028 195.881C122.538 195.566 123.794 195.945 124.098 196.566C124.199 196.689 124.252 197.285 124.182 197.981C124.188 199.051 123.908 205.524 123.839 206.22C123.928 206.454 124.048 206.382 124.616 205.482C125.702 204.183 125.961 203.843 126.582 203.539C129.432 202.895 130.11 204.848 130.414 205.469C130.793 206.463 131.042 209.893 130.884 212.607C130.803 213.415 130.842 214.15 130.932 214.384C130.985 214.98 130.865 215.334 130.369 215.51C127.929 215.998 127.697 214.653 127.51 214.268C127.916 211.607 127.74 209.704 127.67 208.15C127.564 206.957 127.216 207.063 126.703 207.688C126.171 208.507 124.974 210.357 123.863 214.158C123.816 214.631 123.56 214.943 123.437 215.044C122.905 215.582 121.607 215.34 120.868 214.562C120.553 214.053 120.553 214.053 120.581 212.648C120.563 208.032 121.045 199.807 121.39 197.478ZM136.464 205.228C137.597 204.3 138.021 204.005 138.656 203.843C139.286 203.737 140.289 203.837 140.871 204.204C141.724 204.683 141.944 205.296 141.576 205.879C141.387 206.085 141.356 206.11 141.66 206.45C142.19 207.065 141.945 207.829 141.856 208.72C141.709 211.041 141.712 211.576 142.206 214.805C142.367 215.44 142.409 215.867 142.309 216.025C142.178 216.491 141.078 216.522 140.292 216.218C139.757 215.94 139.556 215.695 139.127 214.357C139.144 214.19 139.077 214.015 138.993 214.006C138.993 214.006 138.829 214.243 138.631 214.533C138.16 215.302 137.45 215.935 136.815 216.097C135.848 216.478 134.508 216.092 133.973 215.813C133.129 215.251 132.418 214.476 132.485 213.526C132.865 208.583 135.851 205.73 136.464 205.228ZM135.533 213.436C138.43 212.318 138.741 206.946 138.741 206.946C138.741 206.946 138.473 207.089 138.22 207.373C137.601 207.93 136.752 209.393 136.343 210.394C136.22 210.775 136.014 211.149 135.922 211.224C135.716 211.597 135.357 213.503 135.533 213.436ZM148.251 205.869C148.873 205.284 149.558 204.902 150.043 204.838C152.347 204.87 153.425 206.469 153.819 209.013C153.939 209.785 154.094 215.287 154.13 216.051C154.074 216.608 154.097 216.666 153.882 216.842C152.119 217.876 151.141 216.4 150.973 216.102C150.731 215.712 150.742 214.756 150.71 212.249C150.607 209.621 150.871 208.944 150.409 208.504C148.553 208.488 147.694 214.002 147.167 215.609C146.769 216.78 146.538 216.841 145.878 216.972C144.362 216.934 144.147 216.265 143.98 215.967C143.813 215.669 144.752 206.252 144.983 205.909C145.326 205.296 146.805 205.415 147.483 206.243C147.666 206.373 147.639 206.371 148.251 205.869ZM158.43 209.051C159.386 207.936 161.442 206.79 162.553 206.648C163.787 206.405 164.988 206.778 166.114 207.622C167.814 208.636 167.661 210.45 167.238 211.027C166.803 211.715 166.734 213.537 166.832 216.22C167.347 224.319 164.706 225.969 160.937 225.678C159.477 225.645 158.566 225.188 158.387 224.438C158.197 223.801 158.482 223.491 159.342 223.324C160.727 222.984 162.435 223.632 163.287 221.297C163.922 219.447 163.623 215.393 163.634 215.282C163.634 215.282 161.45 216.865 159.07 217.022C155.164 217.251 155.69 213.392 155.885 212.568C156.469 210.938 158.143 209.388 158.43 209.051ZM163.964 209.715C164.262 209.267 164.42 208.804 164.42 208.804C164.432 208.693 163.807 208.743 163.546 208.829C160.584 210.025 159.267 212.792 159.108 213.255C158.785 213.954 158.713 214.679 158.964 214.704C159.215 214.729 160.755 213.672 161.44 213.009C162.535 211.908 163.504 210.654 163.964 209.715ZM168.394 211.705C169.313 209.545 170.92 208.102 172.739 207.636C176.871 206.838 177.359 209.278 177.429 210.27C176.447 215.04 172.181 215.206 171.365 215.209C171.003 215.173 171.031 215.176 171.081 215.518C171.338 218.02 174.495 217.969 174.848 218.089C175.269 218.384 175.724 218.908 175.699 219.158C175.593 220.217 172.829 220.279 170.879 219.24C167.111 217.514 168.018 212.652 168.394 211.705ZM173.144 211.756C173.821 211.177 174.25 210.544 174.3 210.043C174.426 209.633 174.35 209.541 174.047 209.764C174.047 209.764 173.863 209.915 173.687 209.981C173.3 210.196 172.423 211.093 172.102 211.484C171.894 211.885 171.434 212.824 171.434 212.824C171.509 212.916 172.649 212.213 173.144 211.756ZM177.655 214.148C178.763 211.501 181.994 209.009 184.975 208.462C185.661 208.362 186.694 208.437 187.14 208.763C188.893 210.091 187.762 210.991 186.692 210.716C186.007 210.535 185.709 210.702 184.555 211.262C183.338 211.901 182.413 212.709 181.355 214.01C180.879 214.554 180.848 214.86 180.637 215.289C183.094 214.634 184.484 215.082 184.977 215.216C187.164 215.856 187.544 217.976 185.745 219.372C183.569 221.153 180.908 221.591 179.615 220.449C179.222 220.157 178.966 219.625 179.091 219.215C179.292 218.335 179.882 218.619 180.376 218.753C181.036 218.903 181.532 218.727 182.418 218.309C182.952 218.025 183.771 217.431 183.613 217.331C183.613 217.331 181.01 217.465 180.08 217.485C177.823 217.541 177.305 215.97 177.388 215.134C177.421 214.8 177.546 214.39 177.655 214.148Z" fill="white"/>
<path d="M117.304 132.528C122.872 104.333 120.274 85.1857 109.752 65.9069C97.5648 43.5772 74.0617 18.6556 47.0413 19.6276" stroke="white" stroke-width="5" stroke-linecap="round" stroke-linejoin="round"/>
<path d="M46.2474 18.2113C48.1808 21.7537 50.8912 24.6619 53.2391 27.9234C53.9732 28.9431 54.7367 29.9938 55.3397 31.0985C55.4668 31.3315 55.6416 31.9091 55.9236 31.8989" stroke="white" stroke-width="5" stroke-linecap="round" stroke-linejoin="round"/>
<path d="M46.4533 17.511C48.6182 16.7098 50.7991 16.483 53.0192 15.9207C54.5918 15.5224 56.0642 14.9352 57.5215 14.2313C59.8906 13.087 62.2616 11.824 64.571 10.5635" stroke="white" stroke-width="5" stroke-linecap="round" stroke-linejoin="round"/>
</svg>
